<?xml version="1.0" encoding="UTF-8" standalone="no"?>
<!-- Created with Inkscape (http://www.inkscape.org/) -->

<svg
   xmlns:dc="http://purl.org/dc/elements/1.1/"
   xmlns:cc="http://creativecommons.org/ns#"
   xmlns:rdf="http://www.w3.org/1999/02/22-rdf-syntax-ns#"
   xmlns:svg="http://www.w3.org/2000/svg"
   xmlns="http://www.w3.org/2000/svg"
   version="1.1"
   width="3508.0002"
   height="827"
   id="svg3039">
  <metadata
     id="metadata3045">
    <rdf:RDF>
      <cc:Work
         rdf:about="">
        <dc:format>image/svg+xml</dc:format>
        <dc:type
           rdf:resource="http://purl.org/dc/dcmitype/StillImage" />
        <dc:title></dc:title>
      </cc:Work>
    </rdf:RDF>
  </metadata>
  <defs
     id="defs3043" />
  <g
     transform="translate(1.8854645e-4,0)"
     id="g3103">
    <path
       d="m 0,762.5 c 0,-35.475 0.3375,-64.47461 0.75,-64.44358 0.4125,0.031 37.65,28.33239 82.75,62.8919 l 82,62.83546 0.60885,-58.64189 c 0.33487,-32.25304 0.67237,-60.77939 0.75,-63.39189 L 167,697 l 1670.5,0 1670.5,0 0,65 0,65 -1754,0 L 0,827 0,762.5 z M 236.75,636.39327 c -4.09339,-1.75435 -4.50055,-2.52548 -2.29844,-4.35307 1.13323,-0.9405 2.20211,-0.93329 4.87402,0.0329 3.6815,1.33125 7.08765,0.66661 6.44617,-1.25784 -0.21701,-0.65103 -2.40153,-1.8883 -4.85448,-2.74947 C 234.60275,625.84889 234,625.28513 234,621.59597 c 0,-5.76231 5.52295,-8.60933 12.86571,-6.63213 4.4542,1.19939 4.80907,1.73528 2.88429,4.35562 -1.07896,1.46887 -1.6928,1.53416 -4.48603,0.47716 -2.40019,-0.90826 -3.52709,-0.9335 -4.36287,-0.0977 -1.71711,1.71711 -0.38553,2.94169 4.55014,4.18451 6.38526,1.60782 8.49697,6.48908 4.78854,11.0688 -2.33106,2.87874 -8.57816,3.54609 -13.48978,1.44106 z M 254,626 l 0,-12 3,0 3,0 0,12 0,12 -3,0 -3,0 0,-12 z m 15,3.06336 0,-8.93664 -3.25,-0.31336 c -2.70808,-0.26111 -3.30276,-0.77191 -3.56642,-3.06336 l -0.31642,-2.75 10.06642,0 10.06642,0 0,3 c 0,2.7619 -0.27778,3 -3.5,3 l -3.5,0 0,9 0,9 -3,0 -3,0 0,-8.93664 z m 15,-3.02583 0,-12.03753 9,0 c 8.93333,0 9,0.0185 9,2.5 0,2.38889 -0.26667,2.5 -6,2.5 -5.73333,0 -6,0.11111 -6,2.5 0,2.36364 0.3,2.5 5.5,2.5 5.2,0 5.5,0.13636 5.5,2.5 0,2.36364 -0.3,2.5 -5.5,2.5 -4.83333,0 -5.5,0.24242 -5.5,2 0,1.79704 0.66667,2 6.56955,2 6.24088,0 6.55357,0.11257 6.25,2.25 -0.30159,2.12355 -0.83941,2.26616 -9.56955,2.53753 l -9.25,0.28752 0,-12.03752 z m 38.01285,0.21247 c 4.53298,-10.98461 5.04119,-11.76985 7.8019,-12.0547 2.81753,-0.29072 3.10062,0.0535 6.16789,7.5 1.76815,4.29258 4.04509,9.7172 5.05986,12.0547 l 1.84504,4.25 -3.37638,0 c -2.49813,0 -3.5415,-0.52024 -4.01116,-2 -0.52019,-1.63896 -1.51303,-2 -5.5,-2 -3.98697,0 -4.97981,0.36104 -5.5,2 -0.46839,1.47576 -1.51303,2 -3.98537,2 l -3.3506,0 4.84882,-11.75 z M 331.6939,626 c -0.62281,-1.65 -1.4397,-3 -1.81531,-3 -0.37562,0 -1.15355,1.35 -1.72875,3 -1.00327,2.87799 -0.92944,3 1.81532,3 2.76399,0 2.82267,-0.10184 1.72874,-3 z m 27.3061,0 0,-12 5.53212,0 c 10.4672,0 15.77715,3.98143 15.89536,11.91843 C 380.54589,633.86821 375.10982,638 364.53212,638 L 359,638 l 0,-12 z m 14.96858,2.75 c 1.37523,-2.46952 1.37523,-3.03048 0,-5.5 -1.17176,-2.10416 -2.40472,-2.82289 -5.25,-3.06037 L 365,619.87927 365,626 l 0,6.12073 3.71858,-0.31036 c 2.84528,-0.23748 4.07824,-0.95621 5.25,-3.06037 z M 383,626 l 0,-12 9,0 c 8.93333,0 9,0.0185 9,2.5 0,2.38889 -0.26667,2.5 -6,2.5 -5.73333,0 -6,0.11111 -6,2.5 0,2.36364 0.3,2.5 5.5,2.5 5.2,0 5.5,0.13636 5.5,2.5 0,2.36364 -0.3,2.5 -5.5,2.5 -4.83333,0 -5.5,0.24242 -5.5,2 0,1.79452 0.66667,2 6.4888,2 6.30989,0 6.48309,0.0689 6.28189,2.5 -0.20461,2.47224 -0.30995,2.5 -9.4888,2.5 L 383,638 l 0,-12 z m 23.75,10.38742 c -4.0931,-1.74784 -4.50097,-2.51928 -2.29844,-4.34722 1.13323,-0.9405 2.20211,-0.93329 4.87402,0.0329 3.6815,1.33125 7.08765,0.66661 6.44617,-1.25784 -0.21701,-0.65103 -2.40153,-1.8883 -4.85448,-2.74947 C 404.60275,625.84889 404,625.28513 404,621.59597 c 0,-5.76901 5.40203,-8.58328 12.60475,-6.56664 4.75753,1.33203 5.03756,1.71398 3.14525,4.29013 -1.07896,1.46887 -1.6928,1.53416 -4.48603,0.47716 -2.40019,-0.90826 -3.52709,-0.9335 -4.36287,-0.0977 -1.71711,1.71711 -0.38553,2.94169 4.55014,4.18451 4.5326,1.14132 6.54876,3.27795 6.54876,6.94006 0,5.56203 -8.22609,8.5633 -15.25,5.56395 z M 429,629 l 0,-9 -3.5,0 c -3.22222,0 -3.5,-0.2381 -3.5,-3 l 0,-3 10,0 10,0 0,3 c 0,2.7619 -0.27778,3 -3.5,3 l -3.5,0 0,9 0,9 -3,0 -3,0 0,-9 z m 15,-3 0,-12 3,0 3,0 0,12 0,12 -3,0 -3,0 0,-12 z m 9,0 0,-12 2.83954,0 c 2.29271,0 3.78516,1.20359 7.75,6.25 l 4.91046,6.25 0.29772,-6.25 c 0.294,-6.17203 0.33415,-6.25 3.21826,-6.25 l 2.92055,0 0.28173,11.72154 0.28174,11.72153 4.65716,-11.47153 c 4.36823,-10.75986 4.84183,-11.49044 7.63391,-11.77624 2.8468,-0.2914 3.11709,0.036 6.19157,7.5 1.76815,4.29258 4.04509,9.7172 5.05986,12.0547 l 1.84504,4.25 -3.37638,0 c -2.49813,0 -3.5415,-0.52024 -4.01116,-2 -0.52019,-1.63896 -1.51303,-2 -5.5,-2 -3.98697,0 -4.97981,0.36104 -5.5,2 -0.54584,1.71979 -1.50099,1.99651 -6.81739,1.97509 l -6.18261,-0.0249 -5,-6.64269 -5,-6.64269 -0.29569,6.66759 c -0.295,6.65214 -0.30254,6.6676 -3.25,6.6676 L 453,638 l 0,-12 z m 36.6939,0 c -0.62281,-1.65 -1.4397,-3 -1.81531,-3 -0.37562,0 -1.15355,1.35 -1.72875,3 -1.00327,2.87799 -0.92944,3 1.81532,3 2.76399,0 2.82267,-0.10184 1.72874,-3 z m 15.3061,3 0,-9 -3.5,0 c -3.22222,0 -3.5,-0.2381 -3.5,-3 l 0,-3 10,0 10,0 0,2.88889 c 0,1.6692 -0.52775,2.86929 -1.25,2.84246 C 510.89288,619.51383 511,619.34117 511,629 l 0,9 -3,0 -3,0 0,-9 z m 14,-3 0,-12 3,0 3,0 0,12 0,12 -3,0 -3,0 0,-12 z m 16.19809,10.37484 c -7.91219,-4.01355 -8.29296,-16.31019 -0.63202,-20.4102 9.89203,-5.29405 21.2047,3.03829 18.31822,13.49226 -1.82201,6.59878 -11.13452,10.24136 -17.6862,6.91794 z m 11.0366,-6.77454 C 548.68403,625.93207 545.55685,620 541.17375,620 c -7.38347,0 -8.33047,9.87095 -1.17375,12.23438 1.64859,0.54443 5.08048,-0.90551 6.23469,-2.63408 z M 555,626 l 0,-12 2.83954,0 c 2.29271,0 3.78516,1.20359 7.75,6.25 l 4.91046,6.25 0.29772,-6.25 c 0.29477,-6.1881 0.32695,-6.25 3.25,-6.25 l 2.95228,0 0,12 0,12 -2.75,-0.0249 c -2.20977,-0.02 -3.73223,-1.32983 -7.75,-6.66759 l -5,-6.64269 -0.29569,6.66759 c -0.295,6.65214 -0.30254,6.6676 -3.25,6.6676 L 555,638 l 0,-12 z m 39,0 0,-12 5.47976,0 c 11.13084,0 17.52247,5.43654 16.17244,13.75582 C 614.57085,634.41941 608.93649,638 599.53212,638 L 594,638 l 0,-12 z m 14.96858,2.75 c 1.37523,-2.46952 1.37523,-3.03048 0,-5.5 -1.17176,-2.10416 -2.40472,-2.82289 -5.25,-3.06037 L 600,619.87927 600,626 l 0,6.12073 3.71858,-0.31036 c 2.84528,-0.23748 4.07824,-0.95621 5.25,-3.06037 z m 14.41577,7.86786 C 619.39853,634.81619 618,630.85072 618,621.35078 L 618,614 l 3,0 3,0 0,7.06574 C 624,629.62767 625.06924,632 628.92819,632 632.5144,632 633,630.73802 633,621.41821 L 633,614 l 3,0 3,0 0,8.94424 c 0,7.83563 -0.27907,9.26867 -2.25156,11.56183 -2.75285,3.20038 -8.83099,4.16085 -13.36409,2.11179 z M 657,625.86849 l 0,-12.1315 7.68251,0.49303 c 6.78962,0.43573 7.95187,0.80617 10,3.18727 4.82071,5.60441 1.27387,12.38244 -6.96551,13.31114 -4.58434,0.51672 -4.717,0.62645 -4.717,3.90162 0,3.07772 -0.26015,3.36995 -3,3.36995 l -3,0 0,-12.13151 z m 13.06957,-1.45231 c 1.88908,-2.2762 -0.0351,-4.84293 -3.92042,-5.22954 -3.00165,-0.29868 -3.14915,-0.14646 -3.14915,3.25 0,3.25893 0.24584,3.56336 2.87756,3.56336 1.58265,0 3.46906,-0.71272 4.19201,-1.58382 z M 678,626 l 0,-12 9,0 c 8.93333,0 9,0.0185 9,2.5 0,2.38889 -0.26667,2.5 -6,2.5 -5.73333,0 -6,0.11111 -6,2.5 0,2.36364 0.3,2.5 5.5,2.5 5.2,0 5.5,0.13636 5.5,2.5 0,2.36364 -0.3,2.5 -5.5,2.5 -4.83333,0 -5.5,0.24242 -5.5,2 0,1.79487 0.66667,2 6.5,2 6.26667,0 6.5,0.0897 6.5,2.5 0,2.49123 -0.0333,2.5 -9.5,2.5 l -9.5,0 0,-12 z m 20,0 0,-12 6.25,0.0564 c 9.4995,0.0858 13.05158,1.64033 14.17927,6.20545 0.78818,3.19073 0.5984,4.20941 -1.25,6.70951 -2.64053,3.5715 -2.6482,3.87226 -0.17927,7.0286 2.68489,3.43243 2.50637,4.00193 -1.25,3.98762 -2.60695,-0.01 -3.69701,-0.70245 -5.50919,-3.5 C 707.14387,629.70674 704,629.71297 704,634.5 c 0,3.22222 -0.2381,3.5 -3,3.5 l -3,0 0,-12 z m 14.55516,-2.1738 C 713.40646,621.144 710.85372,619 706.80887,619 704.2654,619 704,619.3307 704,622.5 c 0,3.40667 0.10486,3.5 3.93261,3.5 3.15917,0 4.06831,-0.42753 4.62255,-2.1738 z M 723.75,636.34152 c -4.09079,-1.69678 -4.5043,-2.47062 -2.29844,-4.30132 1.13323,-0.9405 2.20211,-0.93329 4.87402,0.0329 3.59414,1.29966 7.09181,0.67907 6.48208,-1.15011 -0.19726,-0.59178 -2.82218,-2.05527 -5.83316,-3.2522 -4.95257,-1.96876 -5.50504,-2.49474 -5.79483,-5.51705 -0.58191,-6.0688 5.15183,-9.21864 12.95574,-7.11727 4.18351,1.1265 4.52377,1.68389 2.61459,4.283 -1.07896,1.46887 -1.6928,1.53416 -4.48603,0.47716 -2.40019,-0.90826 -3.52709,-0.9335 -4.36287,-0.0977 -1.72235,1.72235 -0.38218,2.94253 4.61353,4.20047 5.08407,1.28018 7.17853,4.20273 6.0978,8.5087 -0.70292,2.80066 -5.18997,5.62158 -8.81277,5.5404 -1.26481,-0.0283 -3.98716,-0.75147 -6.04966,-1.60695 z m 23.44809,-0.0143 c -5.73345,-2.82561 -7.86904,-10.19526 -4.71939,-16.28601 2.17391,-4.20386 9.27312,-6.73172 14.50399,-5.16451 4.98014,1.49208 8.29004,5.95847 8.29004,11.18662 0,4.85061 -2.12582,8.16459 -6.59897,10.28723 -4.34311,2.06094 -7.25848,2.05502 -11.47567,-0.0233 z m 10.23048,-5.89862 C 760.96137,626.89578 758.14792,620 753.17375,620 c -5.349,0 -8.10651,6.20685 -4.51876,10.17126 2.0304,2.24357 6.65179,2.3791 8.77358,0.25731 z M 767,626 l 0,-12 2.83954,0 c 2.29271,0 3.78516,1.20359 7.75,6.25 l 4.91046,6.25 0.29772,-6.25 c 0.29477,-6.1881 0.32695,-6.25 3.25,-6.25 l 2.95228,0 0,12 0,12 -2.75,-0.0249 c -2.20977,-0.02 -3.73223,-1.32983 -7.75,-6.66759 l -5,-6.64269 -0.29569,6.66759 c -0.295,6.65214 -0.30254,6.6676 -3.25,6.6676 L 767,638 l 0,-12 z m 24,0 0,-12 2.83954,0 c 2.29271,0 3.78516,1.20359 7.75,6.25 l 4.91046,6.25 0.29772,-6.25 c 0.29477,-6.1881 0.32695,-6.25 3.25,-6.25 l 2.95228,0 0,12 0,12 -2.75,-0.0249 c -2.20977,-0.02 -3.73223,-1.32983 -7.75,-6.66759 l -5,-6.64269 -0.29569,6.66759 c -0.295,6.65214 -0.30254,6.6676 -3.25,6.6676 L 791,638 l 0,-12 z m 25,0 0,-12 9,0 c 8.93333,0 9,0.0185 9,2.5 0,2.38889 -0.26667,2.5 -6,2.5 -5.73333,0 -6,0.11111 -6,2.5 0,2.36364 0.3,2.5 5.5,2.5 5.2,0 5.5,0.13636 5.5,2.5 0,2.36364 -0.3,2.5 -5.5,2.5 -4.83333,0 -5.5,0.24242 -5.5,2 0,1.79085 0.66667,2 6.375,2 6.13333,0 6.375,0.0948 6.375,2.5 0,2.48889 -0.0417,2.5 -9.375,2.5 l -9.375,0 0,-12 z m 20,0 0,-12 3,0 3,0 0,9 c 0,9.99034 -0.38636,9.53641 7.75,9.10525 2.99027,-0.15846 3.25,0.0702 3.25,2.86126 l 0,3.03349 -8.5,0 -8.5,0 0,-12 z m 34,-0.13437 0,-12.13436 6.75,0.50973 c 8.55417,0.64597 11.73242,2.14851 13.81126,6.52935 C 895.01133,630.14816 888.1623,638 875.53212,638 L 870,638 l 0,-12.13437 z m 14.96858,2.88437 c 1.37523,-2.46952 1.37523,-3.03048 0,-5.5 -1.17176,-2.10416 -2.40472,-2.82289 -5.25,-3.06037 L 876,619.87927 876,626 l 0,6.12073 3.71858,-0.31036 c 2.84528,-0.23748 4.07824,-0.95621 5.25,-3.06037 z M 894,626 l 0,-12 9,0 c 8.93333,0 9,0.0185 9,2.5 0,2.38889 -0.26667,2.5 -6,2.5 -5.73333,0 -6,0.11111 -6,2.5 0,2.36364 0.3,2.5 5.5,2.5 5.2,0 5.5,0.13636 5.5,2.5 0,2.36364 -0.3,2.5 -5.5,2.5 -4.83333,0 -5.5,0.24242 -5.5,2 0,1.79487 0.66667,2 6.5,2 6.26667,0 6.5,0.0897 6.5,2.5 0,2.49123 -0.0333,2.5 -9.5,2.5 l -9.5,0 0,-12 z m 36,0 0,-12 3,0 c 2.90599,0 3.0014,0.14885 3.04481,4.75 l 0.0448,4.75 4.32368,-4.82317 c 3.74856,-4.18161 4.76332,-4.78018 7.62887,-4.5 l 3.30519,0.32317 -4.18618,4.82526 c -2.36065,2.72104 -3.88675,5.33755 -3.49954,6 0.37766,0.64611 2.42505,3.76224 4.54977,6.92474 l 3.86311,5.75 -3.78726,-0.002 c -3.40354,-0.002 -4.07714,-0.46061 -6.64827,-4.53032 -2.2977,-3.63692 -3.13448,-4.30156 -4.25,-3.37576 C 936.62505,630.72615 936,632.76479 936,634.62244 936,637.70862 935.74119,638 933,638 l -3,0 0,-12 z m 23,0 0,-12 9,0 c 8.93333,0 9,0.0185 9,2.5 0,2.38889 -0.26667,2.5 -6,2.5 -5.73333,0 -6,0.11111 -6,2.5 0,2.36364 0.3,2.5 5.5,2.5 5.2,0 5.5,0.13636 5.5,2.5 0,2.36364 -0.3,2.5 -5.5,2.5 -4.83333,0 -5.5,0.24242 -5.5,2 0,1.79452 0.66667,2 6.4888,2 6.30989,0 6.48309,0.0689 6.28189,2.5 -0.20461,2.47224 -0.30995,2.5 -9.4888,2.5 L 953,638 l 0,-12 z m 26.19809,10.32719 c -5.73345,-2.82561 -7.86904,-10.19526 -4.71939,-16.28601 2.17391,-4.20386 9.27312,-6.73172 14.50399,-5.16451 4.98014,1.49208 8.29004,5.95847 8.29004,11.18662 0,4.85061 -2.12582,8.16459 -6.59897,10.28723 -4.34311,2.06094 -7.25848,2.05502 -11.47567,-0.0233 z m 10.23048,-5.89862 C 992.96137,626.89578 990.14792,620 985.17375,620 c -5.349,0 -8.10651,6.20685 -4.51876,10.17126 2.0304,2.24357 6.65179,2.3791 8.77358,0.25731 z M 999,626 l 0,-12 3,0 3,0 0,9 0,9 5.5,0 c 5.4444,0 5.5,0.0303 5.5,3 l 0,3 -8.5,0 -8.5,0 0,-12 z m 19,0 0,-12 3,0 3,0 0,12 0,12 -3,0 -3,0 0,-12 z m 11.75,10.39327 c -4.0934,-1.75435 -4.5006,-2.52548 -2.2984,-4.35307 1.1332,-0.9405 2.2021,-0.93329 4.874,0.0329 3.6815,1.33125 7.0876,0.66661 6.4462,-1.25784 -0.2171,-0.65103 -2.4016,-1.8883 -4.8545,-2.74947 -6.3145,-2.21689 -6.9173,-2.78065 -6.9173,-6.46981 0,-4.79576 3.0187,-7.11385 9.1446,-7.02212 5.8648,0.0878 8.5931,2.03949 6.6152,4.73223 -1.0893,1.48297 -1.6978,1.54936 -4.4958,0.49054 -2.4002,-0.90826 -3.5271,-0.9335 -4.3629,-0.0977 -1.7171,1.71711 -0.3855,2.94169 4.5501,4.18451 6.3853,1.60782 8.497,6.48908 4.7886,11.0688 -2.3311,2.87874 -8.5782,3.54609 -13.4898,1.44106 z M 1062,626 l 0,-12 6.9349,0 c 3.8142,0 8.0766,0.43408 9.4721,0.96463 3.1952,1.21482 4.3443,5.27124 2.3459,8.28105 -1.3277,1.99958 -1.2731,2.48425 0.5589,4.96212 1.7078,2.30995 1.8462,3.15002 0.8715,5.28923 -1.5353,3.3696 -4.8698,4.50297 -13.2484,4.50297 l -6.9349,0 0,-12 z m 14.6771,5.39908 c 0.7887,-2.0552 -1.3111,-3.36437 -5.4271,-3.38377 -2.8041,-0.0132 -3.25,0.3277 -3.25,2.48469 0,2.25324 0.3979,2.5 4.0314,2.5 2.7739,0 4.223,-0.49936 4.6457,-1.60092 z M 1075.5,621.5 c 0,-1.58927 -0.7701,-2.06374 -3.75,-2.31037 -3.4584,-0.28622 -3.75,-0.10654 -3.75,2.31037 0,2.41691 0.2916,2.59659 3.75,2.31037 2.9799,-0.24663 3.75,-0.7211 3.75,-2.31037 z m 9.5,4.5 0,-12 6.25,0.0564 c 9.4995,0.0858 13.0516,1.64033 14.1793,6.20545 0.7964,3.22397 0.6008,4.2061 -1.3676,6.86849 l -2.2968,3.10661 2.1815,3.8815 2.1816,3.88151 -3.314,-0.007 c -2.6617,-0.005 -3.7822,-0.69436 -5.6929,-3.5 -3.2089,-4.71194 -6.1211,-4.70869 -6.1211,0.007 0,3.22222 -0.2381,3.5 -3,3.5 l -3,0 0,-12 z m 14.5552,-2.1738 c 0.8513,-2.6822 -1.7015,-4.8262 -5.7463,-4.8262 -2.5435,0 -2.8089,0.3307 -2.8089,3.5 0,3.40667 0.1049,3.5 3.9326,3.5 3.1592,0 4.0683,-0.42753 4.6226,-2.1738 z M 1107,626 l 0,-12 9,0 c 8.9333,0 9,0.0185 9,2.5 0,2.38889 -0.2667,2.5 -6,2.5 -5.7333,0 -6,0.11111 -6,2.5 0,2.36364 0.3,2.5 5.5,2.5 5.2,0 5.5,0.13636 5.5,2.5 0,2.36364 -0.3,2.5 -5.5,2.5 -4.7516,0 -5.5,0.26052 -5.5,1.91467 0,1.65687 0.8806,1.95983 6.5398,2.25 4.5477,0.23319 6.9511,-0.0772 7.8901,-1.01912 1.1094,-1.11267 1.9723,-1.12957 4.8343,-0.0947 3.7338,1.35015 7.1531,0.7009 6.5076,-1.23564 -0.2171,-0.65103 -2.4016,-1.8883 -4.8545,-2.74947 -6.3145,-2.21689 -6.9173,-2.78065 -6.9173,-6.46981 0,-5.76231 5.523,-8.60933 12.8657,-6.63213 4.4743,1.20479 4.8111,1.72827 2.8436,4.41898 -1.0994,1.50362 -1.6825,1.58652 -3.9362,0.55967 -2.9259,-1.33315 -6.161,-0.60607 -5.5436,1.24595 0.2177,0.65306 2.6093,1.89032 5.3148,2.74947 5.9429,1.88724 7.8842,5.42641 5.402,9.84866 -2.5761,4.58966 -8.1441,5.1116 -16.6963,1.56512 -0.6919,-0.28694 -1.25,0.18852 -1.25,1.06498 0,1.33333 -1.5,1.58333 -9.5,1.58333 l -9.5,0 0,-12 z m 46,3 c 0,-9.39801 -0.013,-9.42283 -4.75,-9.03913 -1.8845,0.15266 -2.25,-0.31664 -2.25,-2.8893 l 0,-3.07157 10,0 10,0 0,3 c 0,2.7619 -0.2778,3 -3.5,3 l -3.5,0 0,9 0,9 -3,0 -3,0 0,-9 z m -921,-82.5 0,-31.5 6.3185,0 c 12.87123,0 22.51636,-5.11971 27.98481,-14.85454 6.28335,-11.18551 6.02174,-6.02471 6.43323,-126.91255 0.38147,-112.0678 -0.0411,-130.14843 -3.25882,-139.42744 -3.92795,-11.32724 -13.21702,-17.2357 -29.00531,-18.44928 L 232,214.70495 232,182.35247 232,150 l 91.5,0 91.5,0 0,125.5 c 0,120.35091 0.0741,125.5 1.80644,125.5 2.17118,0 58.27682,-53.74185 62.97913,-60.32575 4.18122,-5.8543 6.21543,-10.73198 6.21069,-14.89213 -0.009,-7.97304 -7.89605,-13.68424 -20.10368,-14.55769 L 459,310.73127 459,279.36563 459,248 l 111,0 111,0 0,31.37104 0,31.37103 -22.25,0.51322 c -20.75388,0.47871 -23.05664,0.72229 -34.24627,3.62247 -12.52566,3.24645 -24.64757,8.47221 -33.53333,14.45624 -7.53706,5.07575 -51.92826,41.03444 -51.67958,41.86257 0.18639,0.62067 41.58178,53.21419 78.94306,100.29844 14.85221,18.71737 22.12157,25.95855 33.7415,33.61066 11.71763,7.71646 21.46759,11.08523 33.77462,11.66971 l 10.25,0.48678 0,30.36892 0,30.36892 -79.84742,0 -79.84741,0 -49.90259,-62.99243 C 458.95616,480.36173 436.05,452.02977 435.5,452.04765 c -0.55,0.0179 -5.46824,4.21943 -10.92943,9.33678 l -9.92943,9.30428 1.18326,9.62836 c 2.85141,23.20247 12.05315,33.21035 31.65993,34.43357 l 8.51567,0.53127 0,31.35905 0,31.35904 -112,0 -112,0 0,-31.5 z m 1456.5,22.92443 c -8.7825,-1.94011 -20.1877,-7.47526 -24.4376,-11.86007 -3.9712,-4.09718 -3.8037,-4.50056 5.8029,-13.97409 l 7.0068,-6.90973 3.6009,3.16159 c 10.2804,9.02633 27.2346,12.35242 33.6001,6.5917 2.4391,-2.20735 2.47,-5.63235 0.07,-7.80395 -1.0211,-0.92406 -6.9559,-3.91637 -13.1884,-6.64959 -17.8961,-7.84806 -21.6692,-11.25681 -24.0956,-21.76862 -1.0068,-4.36175 -0.9106,-6.12363 0.6508,-11.91516 1.6071,-5.96131 2.5793,-7.5361 7.911,-12.81499 8.4843,-8.40029 15.7895,-10.98152 31.0787,-10.98152 12.7742,0 22.4239,2.56517 30.7649,8.17827 5.5603,3.7418 5.7329,3.80411 5.7407,2.07173 0,-0.6875 0.4742,-2.9375 1.047,-5 l 1.0414,-3.75 40.5325,0 40.5324,0 -0.6768,3.08172 c -0.3723,1.69495 -1.6762,6.75745 -2.8976,11.25 l -2.2207,8.16828 -14.0088,0.2764 -14.0087,0.2764 -9.3391,34.9736 -9.3391,34.9736 -12.8341,0 c -7.0587,0 -12.8226,-0.1125 -12.8087,-0.25 0.014,-0.1375 4.2075,-15.775 9.3191,-34.75 l 9.2938,-34.5 -13.8191,-0.27746 c -7.6005,-0.1526 -13.8191,-0.38057 -13.8191,-0.5066 0,-0.12603 0.4286,-1.80117 0.9525,-3.72254 0.9095,-3.33537 0.6628,-3.17793 -5.4516,3.48043 l -6.4041,6.97384 -2.8291,-2.09162 c -7.572,-5.59826 -18.4062,-8.9835 -24.8699,-7.7709 -3.8825,0.72836 -7.3978,3.7766 -7.3978,6.41485 0,3.12533 3.2484,5.29501 15.6584,10.45862 17.5953,7.32113 24.3175,14.67764 24.336,26.63245 0.014,8.94812 -5.2599,18.93145 -12.7076,24.05564 -9.9713,6.86042 -27.3382,9.46949 -41.7868,6.27772 z M 1401.9842,568.25 c -0.01,-0.4125 5.4653,-21.3375 12.1643,-46.5 l 12.18,-45.75 22.8883,0 c 26.1547,0 33.9603,1.17245 40.8023,6.12879 8.0016,5.79635 10.2575,16.91007 5.4078,26.64214 -2.7564,5.53126 -8.7061,10.6922 -13.5537,11.75693 -3.6561,0.803 -3.647,1.90897 0.028,3.43123 11.8738,4.91827 13.461,23.47964 2.8814,33.69614 -9.9853,9.64264 -18.2734,11.34477 -55.2404,11.34477 -15.1482,0 -27.5493,-0.3375 -27.558,-0.75 z m 61.1003,-24.01578 c 3.3819,-3.78817 3.6978,-7.04543 1.0061,-10.37344 -1.8,-2.22558 -2.651,-2.37949 -14.8591,-2.68745 l -12.9498,-0.32667 -1.6844,6.82667 c -0.9264,3.75467 -1.9311,7.6489 -2.2327,8.65386 -0.5162,1.71986 0.2843,1.80797 13.628,1.5 l 14.1765,-0.32719 2.9154,-3.26578 z m 3.2544,-32.17296 c 6.6049,-2.5112 8.6899,-9.32025 3.9867,-13.0198 -2.4098,-1.89557 -3.7641,-2.07589 -13.6881,-1.82258 l -11.0136,0.28112 -1.7891,7 c -0.984,3.85 -1.7994,7.3375 -1.812,7.75 -0.033,1.08841 21.3944,0.92209 24.3161,-0.18874 z m 35.5291,10.43874 12.5317,-46.5 21.5502,0.0174 c 29.8325,0.024 38.7404,2.12975 46.2821,10.94057 4.247,4.96173 5.768,9.80582 5.768,18.37058 0,13.43429 -6.8305,23.45651 -20.2506,29.71328 -3.7128,1.731 -6.5691,3.44224 -6.3474,3.80274 0.7461,1.21281 13.598,29.37123 13.598,29.79307 0,0.22952 -6.3376,0.29246 -14.0836,0.13986 l -14.0836,-0.27746 -6.2246,-13.5 -6.2247,-13.5 -5.9071,0 -5.9072,0 -2.3231,8.5 c -1.2777,4.675 -2.9933,10.8625 -3.8125,13.75 l -1.4895,5.25 -12.8039,0 -12.8038,0 12.5316,-46.5 z m 52.5001,-3.9575 c 7.1136,-3.46193 9.9422,-12.02965 5.3819,-16.30157 C 1556.2135,498.92806 1552.5422,498 1542.9734,498 l -8.8963,0 -1.1244,4.25 c -0.6184,2.3375 -1.9858,7.39096 -3.0386,11.2299 -1.0527,3.83895 -1.9141,7.15001 -1.9141,7.35793 0,0.20791 5.0625,0.20007 11.25,-0.0174 8.3596,-0.29386 12.2438,-0.87911 15.1181,-2.2779 z m 25.0927,47.63587 c 0.3409,-1.55189 5.9046,-22.36439 12.3638,-46.25 l 11.744,-43.42837 37.3274,-0.26228 c 29.7258,-0.20887 37.2305,-0.005 36.8514,1 -0.5667,1.5028 -3.1481,10.55167 -4.7105,16.51228 l -1.114,4.25 -24.4614,0 c -13.4538,0 -24.4615,0.11393 -24.4615,0.25318 0,0.13925 -0.8682,3.28925 -1.9294,7 l -1.9294,6.74682 21.9294,0 c 16.8851,0 21.9258,0.28753 21.9139,1.25 -0.01,0.6875 -1.0665,5.075 -2.351,9.75 l -2.3355,8.5 -22.2979,0.5 -22.2979,0.5 -1.816,6.5 c -0.9987,3.575 -1.8317,6.8375 -1.8511,7.25 -0.019,0.4125 10.9899,0.75 24.4649,0.75 13.475,0 24.5034,0.3375 24.5077,0.75 0,0.4125 -1.1887,5.3625 -2.6509,11 l -2.6585,10.25 -37.4286,0 -37.4286,0 0.6197,-2.82163 z m 1295.668,-249.82 c -13.9664,-5.1308 -19.0643,-23.21433 -11.2511,-39.91081 7.1297,-15.23576 23.9356,-23.65964 37.929,-19.01178 6.3003,2.09265 9.6968,4.71185 13.1298,10.12515 l 2.6649,4.20213 5.3309,-19.88153 C 2928.247,232.06044 2928.2717,232 2931.0548,232 l 2.7917,0 -3.4102,12.75 c -19.1162,71.47187 -18.8859,70.72431 -21.8984,71.07879 -2.5504,0.30009 -2.7394,0.10369 -2.1661,-2.25 0.3455,-1.41833 0.9113,-3.81629 1.2573,-5.32879 l 0.6292,-2.75 -3.8792,3.64398 c -8.2701,7.76879 -19.9198,10.6421 -29.2503,7.21439 z m 20.1202,-6.18797 c 17.198,-7.78408 24.5647,-30.35408 13.8804,-42.52681 -4.6728,-5.32375 -14.2986,-7.60844 -22.2801,-5.28816 -7.2486,2.10722 -13.0549,7.27175 -16.7927,14.93654 -7.1282,14.61733 -4.0968,28.49576 7.402,33.88766 4.8269,2.26334 11.3816,1.8915 17.7904,-1.00923 z m -227.6089,5.25802 c -6.6458,-2.12373 -13.7918,-9.32692 -15.5764,-15.70108 -4.7061,-16.80848 6.6534,-36.54645 24.0793,-41.83939 12.0401,-3.65706 21.6123,-1.32872 29.2378,7.11177 3.0136,3.33571 3.5131,4.42322 2.5593,5.57242 -1.8013,2.17046 -3.6607,1.72477 -5.999,-1.43792 -7.7688,-10.50794 -25.177,-10.10646 -35.7859,0.8253 -5.408,5.57257 -8.2915,11.86944 -8.8986,19.4323 -0.8833,11.00401 4.4709,18.8873 14.6723,21.60272 6.0956,1.62253 11.8035,0.53856 18.5471,-3.52226 4.5294,-2.72743 6.1091,-3.22949 7.6191,-2.42139 2.427,1.29891 2.3932,1.70075 -0.3451,4.09962 -7.3765,6.46215 -20.785,9.25781 -30.1099,6.27791 z M 2735,316.11868 c -5.8908,-1.29199 -11.8811,-4.97186 -14.9181,-9.16431 -10.9105,-15.06156 -2.6244,-38.71489 16.743,-47.79396 4.7138,-2.20976 7.0302,-2.65123 13.6751,-2.60622 6.6815,0.0453 8.8668,0.50205 13.2594,2.77159 20.6895,10.68985 15.646,43.35858 -8.3929,54.36396 -5.8618,2.68364 -14.5052,3.71446 -20.3665,2.42894 z m 18.1224,-7.13928 c 5.9749,-2.99106 11.5369,-8.48998 14.6455,-14.4794 3.6831,-7.09647 3.777,-17.1339 0.2195,-23.48743 -8.8272,-15.76523 -33.915,-11.47219 -43.7553,7.48743 -5.0386,9.70812 -2.8712,24.41426 4.2898,29.10633 7.3971,4.84674 16.6319,5.36218 24.6005,1.37307 z m 196.3776,6.52432 c -2.2,-0.77468 -5.2067,-2.8385 -6.6815,-4.58626 -3.0752,-3.64434 -5.3235,-11.67352 -4.3921,-15.68512 0.349,-1.50279 2.7222,-10.71984 5.2738,-20.48234 l 4.6394,-17.75 2.9372,0 c 2.0197,0 2.7792,0.4117 2.4314,1.31795 -0.2781,0.72486 -2.6246,9.1422 -5.2145,18.70519 -5.7388,21.19085 -5.7674,25.50503 -0.2031,30.60439 6.2944,5.76837 15.5111,5.51809 24.0888,-0.65413 7.3757,-5.30732 10.0818,-10.66517 15.6062,-30.89823 2.7669,-10.13365 5.2109,-18.60501 5.4311,-18.82524 0.2203,-0.22023 1.4887,-0.25406 2.8187,-0.0752 l 2.4182,0.32524 -7.2674,26.9451 c -3.997,14.81981 -7.5276,27.98231 -7.8458,29.25 -0.4371,1.74149 -1.285,2.3049 -3.4689,2.3049 l -2.8905,0 1.319,-5 c 0.7254,-2.75 1.1823,-5 1.0152,-5 -0.167,0 -1.8138,1.41803 -3.6594,3.15117 -7.4701,7.01463 -17.5653,9.44789 -26.3558,6.35255 z m 75.1401,-0.0753 c -6.6458,-2.12373 -13.7918,-9.32692 -15.5764,-15.70108 -4.7061,-16.80848 6.6534,-36.54645 24.0793,-41.83939 12.0401,-3.65706 21.6123,-1.32872 29.2378,7.11177 3.0136,3.33571 3.5131,4.42322 2.5593,5.57242 -1.8013,2.17046 -3.6607,1.72477 -5.999,-1.43792 -7.7688,-10.50794 -25.177,-10.10646 -35.7859,0.8253 -5.408,5.57257 -8.2915,11.86944 -8.8986,19.4323 -0.8833,11.00401 4.4709,18.8873 14.6723,21.60272 6.0956,1.62253 11.8035,0.53856 18.5471,-3.52226 4.5294,-2.72743 6.1091,-3.22949 7.6191,-2.42139 2.427,1.29891 2.3932,1.70075 -0.3451,4.09962 -7.3765,6.46215 -20.785,9.25781 -30.1099,6.27791 z M 3086,316.40173 c -6.1593,-2.25008 -9.0028,-5.75894 -8.9969,-11.10207 0,-1.53981 2.4148,-11.79966 5.3625,-22.79966 l 5.3594,-20 -4.2145,-0.29875 c -3.8508,-0.27296 -4.1749,-0.50592 -3.7556,-2.69957 0.3942,-2.06199 1.1079,-2.44323 5.0567,-2.70126 l 4.5978,-0.30042 2.451,-9.25 c 2.3815,-8.98758 2.5336,-9.25 5.3627,-9.25 2.4101,0 2.8073,0.32876 2.3059,1.90865 -1.0507,3.31043 -4.529,16.043 -4.529,16.57869 0,0.28196 4.5,0.51266 10,0.51266 5.5,0 10,0.4132 10,0.91821 0,3.67391 -1.1371,4.08179 -11.379,4.08179 l -10.1651,0 -5.2279,19.31504 c -5.7135,21.1088 -6.2336,25.46489 -3.352,28.07272 2.5127,2.27395 7.9043,3.04303 12.4786,1.78 3.5733,-0.98663 3.7082,-0.93622 3.0788,1.1502 -0.362,1.20012 -1.0418,2.5937 -1.5106,3.09685 -0.9854,1.0575 -10.6989,1.79933 -12.9228,0.98692 z m 49.19,-0.81667 c -12.4887,-4.08415 -18.4915,-13.94819 -16.8618,-27.70812 1.8565,-15.67511 15.5319,-29.77025 30.6172,-31.55688 14.8042,-1.75334 25.3248,7.20171 25.4702,21.67994 0.1086,10.82333 2.2512,10 -26.0231,10 l -24.6703,0 0.5542,6.11138 c 0.623,6.87121 3.7904,11.82985 9.8296,15.38862 5.1979,3.06297 15.7893,2.68784 22.5732,-0.79952 2.8486,-1.46435 5.4627,-3.12101 5.809,-3.68146 0.9522,-1.54054 1.8941,-1.23774 3.337,1.07267 1.1217,1.79616 1.0497,2.29907 -0.5095,3.55941 -7.3285,5.92388 -21.5754,8.73014 -30.1257,5.93396 z m 33.6154,-38.5985 c -0.523,-7.22993 -2.6662,-10.56865 -8.8639,-13.80791 -10.9228,-5.70884 -27.6837,2.38666 -33.4337,16.14845 l -1.5346,3.6729 22.1336,0 22.1336,0 -0.435,-6.01344 z m 29.6946,38.51716 c -2.2,-0.77468 -5.2067,-2.8385 -6.6815,-4.58626 -3.0752,-3.64434 -5.3235,-11.67352 -4.3921,-15.68512 0.349,-1.50279 2.7222,-10.71984 5.2738,-20.48234 l 4.6394,-17.75 2.9372,0 c 2.0197,0 2.7792,0.4117 2.4314,1.31795 -0.2781,0.72486 -2.6246,9.1422 -5.2145,18.70519 -5.7388,21.19085 -5.7674,25.50503 -0.2031,30.60439 6.2944,5.76837 15.5111,5.51809 24.0888,-0.65413 7.3757,-5.30732 10.0818,-10.66517 15.6062,-30.89823 2.7669,-10.13365 5.2109,-18.60501 5.4311,-18.82524 0.2203,-0.22023 1.4887,-0.25406 2.8187,-0.0752 l 2.4182,0.32524 -7.2674,26.9451 c -3.997,14.81981 -7.5276,27.98231 -7.8458,29.25 -0.4371,1.74149 -1.285,2.3049 -3.4689,2.3049 l -2.8905,0 1.319,-5 c 0.7254,-2.75 1.1823,-5 1.0152,-5 -0.167,0 -1.8138,1.41803 -3.6594,3.15117 -7.4701,7.01463 -17.5653,9.44789 -26.3558,6.35255 z m 115.4293,0.18875 c -4.7718,-1.34909 -13.3554,-5.95492 -14.4756,-7.76735 -0.3573,-0.57813 0.1156,-1.89674 1.0509,-2.93023 1.6535,-1.82703 1.8432,-1.7847 6.848,1.52779 14.0035,9.26839 31.6474,5.27183 31.6474,-7.16852 0,-3.51821 -4.8561,-7.78529 -11.7981,-10.36695 -3.136,-1.16627 -7.6553,-3.25845 -10.0428,-4.64928 -10.3496,-6.02912 -9.1224,-19.39912 2.3202,-25.27919 4.0414,-2.07678 6.3959,-2.55874 12.5,-2.55874 6.3651,0 8.4366,0.46098 13.4814,3 6.5498,3.29656 7.1476,4.10624 5.0646,6.86022 -1.368,1.80867 -1.4848,1.80502 -4.2161,-0.13168 -3.4789,-2.46676 -11.4657,-5.23042 -15.0941,-5.22296 -8.1637,0.0168 -15.2151,5.19343 -15.2151,11.16994 0,4.17165 4.3926,8.01709 13.0277,11.40496 12.4188,4.87233 17.3208,11.00313 15.4842,19.3653 -2.2375,10.18714 -17.3526,16.48706 -30.5826,12.74669 z M 1397.2758,314.75 c 0.2434,-0.6875 8.9434,-33.08347 19.3334,-71.99104 l 18.8908,-70.74104 3.25,-0.009 c 1.7875,-0.005 3.25,0.33996 3.25,0.76641 0,0.42646 -8.1163,31.13896 -18.0363,68.25 -9.92,37.11105 -18.4873,69.16213 -19.0386,71.22463 -0.9192,3.43958 -1.2956,3.75 -4.547,3.75 -2.4051,0 -3.4025,-0.40187 -3.1023,-1.25 z m 50.7786,1 c 0.03,-0.1375 8.7041,-32.425 19.2758,-71.75 l 19.2212,-71.5 3.3324,0 3.3324,0 34.1419,65.72233 c 18.778,36.14729 34.3921,65.73479 34.698,65.75 0.3058,0.0152 8.4058,-29.26017 18,-65.05641 9.5941,-35.79625 17.7161,-65.52963 18.0488,-66.07419 0.3326,-0.54455 1.9245,-0.84421 3.5375,-0.66591 l 2.9328,0.32418 -18.2292,68 c -10.026,37.4 -18.7235,69.6875 -19.3277,71.75 -0.9288,3.17043 -1.5282,3.75 -3.8781,3.75 -2.6643,0 -4.1802,-2.69345 -36.5274,-64.90115 -18.5613,-35.69564 -34.3445,-65.71732 -35.074,-66.71484 -1.2183,-1.66616 -1.4018,-1.53186 -2.2564,1.65115 -0.5117,1.90566 -8.5418,31.92734 -17.8448,66.71484 l -16.9145,63.25 -3.2615,0 c -1.7939,0 -3.2371,-0.1125 -3.2072,-0.25 z M 1645,315.07298 c 0,-0.57956 7.8452,-30.42057 17.4338,-66.31336 9.5886,-35.89279 17.7374,-66.49712 18.1084,-68.00962 l 0.6746,-2.75 -25.5219,0 -25.5219,0 0.7353,-2.75 0.7354,-2.75 54.797,-0.2586 54.7971,-0.25859 -0.6053,2.25859 c -0.3328,1.24223 -0.6113,2.5961 -0.6188,3.0086 -0.01,0.4125 -11.6637,0.75 -25.9027,0.75 l -25.8889,0 -1.6776,6.25 c -0.9227,3.4375 -9.1926,34.375 -18.3776,68.75 l -16.6999,62.5 -3.2335,0.31336 c -1.7972,0.17416 -3.2335,-0.15471 -3.2335,-0.74038 z m 87.2369,-0.82298 c 0.2586,-0.9625 8.9617,-33.3625 19.3402,-72 l 18.87,-70.25 29.1885,0 c 31.6873,0 40.1086,0.90503 49.8287,5.35502 18.6341,8.53098 24.8476,30.43194 14.4282,50.85565 -3.1226,6.12077 -11.907,14.21683 -19.2045,17.69963 -5.7968,2.76652 -18.4779,6.22613 -27.9917,7.63656 l -3.8036,0.5639 5.9169,11.19462 c 3.2544,6.15704 10.5273,20.11038 16.1622,31.00742 l 10.2452,19.8128 -4.1667,-0.3128 -4.1667,-0.3128 -15.7268,-30.5 -15.7267,-30.5 -25.1633,-0.26706 -25.1634,-0.26706 -0.8826,3.26706 c -0.4855,1.79688 -4.18,15.75456 -8.2101,31.01706 l -7.3274,27.75 -3.4583,0 c -2.806,0 -3.3696,-0.33005 -2.9881,-1.75 z m 96.5234,-68.60379 c 14.2358,-3.70158 24.3464,-11.05495 29.4477,-21.41716 2.988,-6.06948 3.2913,-7.52005 3.2848,-15.70802 -0.01,-7.32443 -0.4125,-9.77332 -2.1623,-13.02103 -4.7242,-8.76787 -14.3099,-14.63932 -26.8615,-16.45325 -8.5497,-1.23557 -56.1433,-1.38282 -56.8891,-0.17601 -0.5391,0.8723 -18.5799,67.59649 -18.5799,68.71811 0,0.32772 14.7375,0.39094 32.75,0.14049 25.8858,-0.35991 34.0621,-0.79652 39.0103,-2.08313 z m 46.4838,55.16362 c 6.2368,-8.42041 30.376,-41.07233 53.6426,-72.55983 40.3782,-54.64512 42.4465,-57.24988 45.4581,-57.24746 l 3.1552,0.003 14.6255,72.49747 14.6256,72.49746 -3.2686,0 c -1.7977,0 -3.4725,-0.5625 -3.7218,-1.25 -0.2493,-0.6875 -2.1953,-10.1375 -4.3244,-21 l -3.8712,-19.75 -44.5325,0.0578 -44.5326,0.0578 -15.0449,20.69216 -15.045,20.69216 -4.2528,0.30983 -4.2529,0.30984 11.3397,-15.30984 z M 1990,266.86758 c 0,-1.95359 -16.0694,-83.27086 -16.8418,-85.22605 -0.581,-1.47071 -7.4028,7.17447 -32.6962,41.43581 -17.5791,23.81184 -32.112,43.66065 -32.2953,44.10846 -0.1834,0.44781 18.1541,0.8142 40.75,0.8142 29.9249,0 41.0833,-0.30757 41.0833,-1.13242 z m 45.0544,48.88242 c 0.03,-0.1375 8.7041,-32.425 19.2758,-71.75 l 19.2212,-71.5 3.3324,0 3.3324,0 34.1419,65.72233 c 18.778,36.14729 34.3921,65.73479 34.698,65.75 0.3058,0.0152 8.4058,-29.26017 18,-65.05641 9.5941,-35.79625 17.7161,-65.52963 18.0488,-66.07419 0.3326,-0.54455 1.9245,-0.84421 3.5375,-0.66591 l 2.9328,0.32418 -18.2292,68 c -10.026,37.4 -18.7235,69.6875 -19.3277,71.75 -0.9288,3.17043 -1.5282,3.75 -3.8781,3.75 -2.6643,0 -4.1802,-2.69345 -36.5274,-64.90115 -18.5613,-35.69564 -34.3445,-65.71732 -35.074,-66.71484 -1.2183,-1.66616 -1.4018,-1.53186 -2.2564,1.65115 -0.5117,1.90566 -8.5418,31.92734 -17.8448,66.71484 l -16.9145,63.25 -3.2615,0 c -1.7939,0 -3.2371,-0.1125 -3.2072,-0.25 z m 161.1915,-1.5 c 0.2636,-0.9625 8.965,-33.3625 19.3364,-72 l 18.8572,-70.25 50.1938,0 50.1937,0 -0.7353,2.75 -0.7353,2.75 -46.3883,0.26013 c -25.5136,0.14306 -46.7122,0.59306 -47.1079,1 -0.6093,0.62647 -16.8602,60.08381 -16.8602,61.68653 0,0.30434 18.9,0.55334 42,0.55334 44.528,0 43.1451,-0.14761 41.393,4.41821 -0.5403,1.40793 -5.2622,1.58179 -42.9614,1.58179 l -42.3545,0 -1.1128,4.25 c -0.6121,2.3375 -4.2294,15.85947 -8.0386,30.04882 -3.8091,14.18935 -6.9257,26.45185 -6.9257,27.25 0,1.24766 6.5916,1.45118 47,1.45118 25.85,0 47,0.19571 47,0.4349 0,0.2392 -0.4389,1.5892 -0.9752,3 l -0.9753,2.5651 -50.6414,0 c -47.7458,0 -50.614,-0.10006 -50.1622,-1.75 z M 2366,315.07298 c 0,-0.57956 7.8452,-30.42057 17.4338,-66.31336 9.5886,-35.89279 17.7374,-66.49712 18.1084,-68.00962 l 0.6746,-2.75 -25.5219,0 -25.5219,0 0.7353,-2.75 0.7354,-2.75 54.797,-0.2586 54.7971,-0.25859 -0.6053,2.25859 c -0.3328,1.24223 -0.6113,2.5961 -0.6188,3.0086 -0.01,0.4125 -11.6637,0.75 -25.9027,0.75 l -25.8889,0 -1.6837,6.25 c -0.926,3.4375 -9.194,34.375 -18.3734,68.75 l -16.6899,62.5 -3.2375,0.31336 C 2367.4375,315.98758 2366,315.65884 2366,315.07298 z M 2786.5081,314.75 c 0.3568,-1.00124 8.1867,-30.01564 14.4377,-53.5 0.9983,-3.75041 1.4688,-4.25 4.0022,-4.25 l 2.871,0 -1.3166,4.99079 -1.3165,4.99079 4.2145,-3.45348 c 11.2199,-9.19384 24.636,-10.01047 32.2271,-1.96164 3.5078,3.7194 5.9709,11.78732 4.9461,16.2012 -0.349,1.50279 -2.7222,10.71984 -5.2738,20.48234 l -4.6394,17.75 -2.9372,0 c -2.0197,0 -2.7792,-0.4117 -2.4314,-1.31795 0.2781,-0.72486 2.6246,-9.1422 5.2145,-18.70519 5.7388,-21.19085 5.7674,-25.50503 0.2031,-30.60439 -6.2944,-5.76837 -15.5111,-5.51809 -24.0888,0.65413 -8.2788,5.95723 -10.9254,12.13108 -19.6002,45.7234 -0.977,3.7833 -1.4192,4.25 -4.0276,4.25 -1.9149,0 -2.7757,-0.43308 -2.4847,-1.25 z m 467.7849,-0.0713 c 0.2789,-0.72669 3.5031,-12.53919 7.1649,-26.25 8.89,-33.2864 8.2328,-31.42874 11.1197,-31.42874 2.8322,0 2.9486,0.94743 0.9332,7.59107 -2.2681,7.47673 -1.9344,7.64924 3.8579,1.99415 6.1708,-6.02464 12.763,-9.45817 19.7471,-10.28534 l 4.877,-0.57761 -1.0678,3.06303 c -0.8918,2.55816 -1.7565,3.17805 -5.2464,3.76089 -10.2453,1.71104 -20.9746,10.16446 -25.9605,20.45381 -1.4658,3.025 -4.3317,11.6875 -6.3688,19.25 -3.6889,13.69511 -3.7154,13.75 -6.6335,13.75 -2.0172,0 -2.7719,-0.41153 -2.4228,-1.32126 z m -733.9076,-59.85582 c 0.3495,-1.7474 0.7883,-3.33 0.9752,-3.5169 0.1869,-0.1869 12.0236,-0.21971 26.3036,-0.0729 l 25.9638,0.2669 -0.8426,3.25 -0.8426,3.25 -26.0964,0 -26.0964,0 0.6354,-3.17708 z"
       id="path3109"
       style="fill:#fefefe" />
    <path
       d="m 130.87244,797.25 c -1.24387,-1.58606 -1.2085,-1.62143 0.37756,-0.37756 0.9625,0.75485 1.75,1.54235 1.75,1.75 0,0.82304 -0.82119,0.29331 -2.12756,-1.37244 z M 166.21503,708.73861 166,696.97722 82.999906,697.23861 -1.8854645e-4,697.5 -9.4273224e-5,348.75 0,0 l 1754,0 1754,0 0,348.5 0,348.5 -1670.4683,0 -1670.46823,0 -0.3167,11.75 -0.3167,11.75 -0.21504,-11.76139 z m 84.02475,-73.7864 c 3.70843,-4.57972 1.59672,-9.46098 -4.78854,-11.0688 -4.93567,-1.24282 -6.26725,-2.4674 -4.55014,-4.18451 0.83578,-0.83578 1.96268,-0.81054 4.36287,0.0977 2.79323,1.057 3.40707,0.99171 4.48603,-0.47716 1.92478,-2.62034 1.56991,-3.15623 -2.88429,-4.35562 C 239.52295,612.98664 234,615.83366 234,621.59597 c 0,3.68916 0.60275,4.25292 6.91727,6.46981 2.45295,0.86117 4.63747,2.09844 4.85448,2.74947 0.64148,1.92445 -2.76467,2.58909 -6.44617,1.25784 -2.67191,-0.96618 -3.74079,-0.97339 -4.87402,-0.0329 -2.20211,1.82759 -1.79495,2.59872 2.29844,4.35307 4.91162,2.10503 11.15872,1.43768 13.48978,-1.44106 z M 260,626 l 0,-12 -3,0 -3,0 0,12 0,12 3,0 3,0 0,-12 z m 15,3 0,-9 3.5,0 c 3.22222,0 3.5,-0.2381 3.5,-3 l 0,-3 -10.06642,0 -10.06642,0 0.31642,2.75 c 0.26366,2.29145 0.85834,2.80225 3.56642,3.06336 l 3.25,0.31336 0,8.93664 0,8.93664 3,0 3,0 0,-9 z m 27.81955,6.25 c 0.30357,-2.13743 -0.009,-2.25 -6.25,-2.25 C 290.66667,633 290,632.79704 290,631 c 0,-1.75758 0.66667,-2 5.5,-2 5.2,0 5.5,-0.13636 5.5,-2.5 0,-2.36364 -0.3,-2.5 -5.5,-2.5 -5.2,0 -5.5,-0.13636 -5.5,-2.5 0,-2.38889 0.26667,-2.5 6,-2.5 5.73333,0 6,-0.11111 6,-2.5 0,-2.48148 -0.0667,-2.5 -9,-2.5 l -9,0 0,12.03753 0,12.03752 9.25,-0.28752 c 8.73014,-0.27137 9.26796,-0.41398 9.56955,-2.53753 z M 324.5,636 c 0.52019,-1.63896 1.51303,-2 5.5,-2 3.98697,0 4.97981,0.36104 5.5,2 0.46966,1.47976 1.51303,2 4.01116,2 l 3.37638,0 -1.84504,-4.25 c -1.01477,-2.3375 -3.29171,-7.76212 -5.05986,-12.0547 -3.06727,-7.44648 -3.35036,-7.79072 -6.16789,-7.5 -2.76071,0.28485 -3.26892,1.07009 -7.8019,12.0547 l -4.84882,11.75 3.3506,0 c 2.47234,0 3.51698,-0.52424 3.98537,-2 z m 3.64984,-10 c 0.5752,-1.65 1.35313,-3 1.72875,-3 0.37561,0 1.1925,1.35 1.81531,3 1.09393,2.89816 1.03525,3 -1.72874,3 -2.74476,0 -2.81859,-0.12201 -1.81532,-3 z m 45.13228,10.63802 c 5.25996,-2.22631 7.22789,-5.17863 7.14536,-10.71959 C 380.30927,617.98143 374.99932,614 364.53212,614 L 359,614 l 0,12 0,12 5.53212,0 c 3.04266,0 6.98016,-0.61289 8.75,-1.36198 z M 365,626 l 0,-6.12073 3.71858,0.31036 c 2.84528,0.23748 4.07824,0.95621 5.25,3.06037 1.37523,2.46952 1.37523,3.03048 0,5.5 -1.17176,2.10416 -2.40472,2.82289 -5.25,3.06037 L 365,632.12073 365,626 z m 36.77069,9.5 c 0.2012,-2.43107 0.028,-2.5 -6.28189,-2.5 -5.82213,0 -6.4888,-0.20548 -6.4888,-2 0,-1.75758 0.66667,-2 5.5,-2 5.2,0 5.5,-0.13636 5.5,-2.5 0,-2.36364 -0.3,-2.5 -5.5,-2.5 -5.2,0 -5.5,-0.13636 -5.5,-2.5 0,-2.38889 0.26667,-2.5 6,-2.5 5.73333,0 6,-0.11111 6,-2.5 0,-2.48148 -0.0667,-2.5 -9,-2.5 l -9,0 0,12 0,12 9.28189,0 c 9.17885,0 9.28419,-0.0278 9.4888,-2.5 z M 420.25,634.86693 c 3.72223,-4.44221 1.56433,-9.38128 -4.79876,-10.98352 -4.93567,-1.24282 -6.26725,-2.4674 -4.55014,-4.18451 0.83578,-0.83578 1.96268,-0.81054 4.36287,0.0977 2.79323,1.057 3.40707,0.99171 4.48603,-0.47716 1.89231,-2.57615 1.61228,-2.9581 -3.14525,-4.29013 C 409.40203,613.01269 404,615.82696 404,621.59597 c 0,3.68916 0.60275,4.25292 6.91727,6.46981 2.45295,0.86117 4.63747,2.09844 4.85448,2.74947 0.64148,1.92445 -2.76467,2.58909 -6.44617,1.25784 -2.67191,-0.96618 -3.74079,-0.97339 -4.87402,-0.0329 -2.20253,1.82794 -1.79466,2.59938 2.29844,4.34722 4.7721,2.03778 11.11727,1.32313 13.5,-1.52049 z M 435,629 l 0,-9 3.5,0 c 3.22222,0 3.5,-0.2381 3.5,-3 l 0,-3 -10,0 -10,0 0,3 c 0,2.7619 0.27778,3 3.5,3 l 3.5,0 0,9 0,9 3,0 3,0 0,-9 z m 15,-3 0,-12 -3,0 -3,0 0,12 0,12 3,0 3,0 0,-12 z m 9.20431,5.3324 0.29569,-6.66759 5,6.64269 5,6.64269 6.18261,0.0249 c 5.3164,0.0214 6.27155,-0.2553 6.81739,-1.97509 0.52019,-1.63896 1.51303,-2 5.5,-2 3.98697,0 4.97981,0.36104 5.5,2 0.46966,1.47976 1.51303,2 4.01116,2 l 3.37638,0 -1.84504,-4.25 c -1.01477,-2.3375 -3.29171,-7.76212 -5.05986,-12.0547 -3.07448,-7.46399 -3.34477,-7.7914 -6.19157,-7.5 -2.79208,0.2858 -3.26568,1.01638 -7.63391,11.77624 L 475.5,637.44307 475.21826,625.72154 474.93653,614 l -2.92055,0 c -2.88411,0 -2.92426,0.078 -3.21826,6.25 l -0.29772,6.25 -4.91046,-6.25 c -3.96484,-5.04641 -5.45729,-6.25 -7.75,-6.25 L 453,614 l 0,12 0,12 2.95431,0 c 2.94746,0 2.955,-0.0155 3.25,-6.6676 z M 486.14984,626 c 0.5752,-1.65 1.35313,-3 1.72875,-3 0.37561,0 1.1925,1.35 1.81531,3 1.09393,2.89816 1.03525,3 -1.72874,3 -2.74476,0 -2.81859,-0.12201 -1.81532,-3 z M 511,629 c 0,-9.65883 -0.10712,-9.48617 5.75,-9.26865 0.72225,0.0268 1.25,-1.17326 1.25,-2.84246 L 518,614 l -10,0 -10,0 0,3 c 0,2.7619 0.27778,3 3.5,3 l 3.5,0 0,9 0,9 3,0 3,0 0,-9 z m 14,-3 0,-12 -3,0 -3,0 0,12 0,12 3,0 3,0 0,-12 z m 24.10962,8.92194 c 3.501,-2.49293 5.07712,-7.66175 3.77467,-12.37884 -2.59362,-9.39332 -17.99877,-11.02376 -22.4696,-2.37812 -6.1187,11.83226 7.59737,22.65912 18.69493,14.75696 z M 540,632.23438 C 532.84328,629.87095 533.79028,620 541.17375,620 c 4.3831,0 7.51028,5.93207 5.06094,9.6003 -1.15421,1.72857 -4.5861,3.17851 -6.23469,2.63408 z m 21.20431,-0.90198 0.29569,-6.66759 5,6.64269 c 4.01777,5.33776 5.54023,6.64758 7.75,6.66759 L 577,638 l 0,-12 0,-12 -2.95228,0 c -2.92305,0 -2.95523,0.0619 -3.25,6.25 l -0.29772,6.25 -4.91046,-6.25 c -3.96484,-5.04641 -5.45729,-6.25 -7.75,-6.25 L 555,614 l 0,12 0,12 2.95431,0 c 2.94746,0 2.955,-0.0155 3.25,-6.6676 z m 47.07781,5.30562 c 6.75357,-2.85849 9.33303,-9.43208 6.25029,-15.92848 C 612.45025,616.32172 607.24154,614 599.47976,614 L 594,614 l 0,12 0,12 5.53212,0 c 3.04266,0 6.98016,-0.61289 8.75,-1.36198 z M 600,626 l 0,-6.12073 3.71858,0.31036 c 2.84528,0.23748 4.07824,0.95621 5.25,3.06037 1.37523,2.46952 1.37523,3.03048 0,5.5 -1.17176,2.10416 -2.40472,2.82289 -5.25,3.06037 L 600,632.12073 600,626 z m 36.74844,8.50607 C 638.72093,632.21291 639,630.77987 639,622.94424 L 639,614 l -3,0 -3,0 0,7.41821 C 633,630.73802 632.5144,632 628.92819,632 625.06924,632 624,629.62767 624,621.06574 L 624,614 l -3,0 -3,0 0,7.35078 c 0,9.49994 1.39853,13.46541 5.38435,15.26708 4.5331,2.04906 10.61124,1.08859 13.36409,-2.11179 z M 663,634.63005 c 0,-3.27517 0.13266,-3.3849 4.717,-3.90162 8.23938,-0.9287 11.78622,-7.70673 6.96551,-13.31114 -2.04813,-2.3811 -3.21038,-2.75154 -10,-3.18727 L 657,613.73699 l 0,12.1315 0,12.13151 3,0 c 2.73985,0 3,-0.29223 3,-3.36995 z m 0,-12.19341 c 0,-3.39646 0.1475,-3.54868 3.14915,-3.25 C 672.4355,619.81217 672.18884,626 665.87756,626 663.24584,626 663,625.69557 663,622.43664 z M 697,635.5 c 0,-2.41026 -0.23333,-2.5 -6.5,-2.5 -5.83333,0 -6.5,-0.20513 -6.5,-2 0,-1.75758 0.66667,-2 5.5,-2 5.2,0 5.5,-0.13636 5.5,-2.5 0,-2.36364 -0.3,-2.5 -5.5,-2.5 -5.2,0 -5.5,-0.13636 -5.5,-2.5 0,-2.38889 0.26667,-2.5 6,-2.5 5.73333,0 6,-0.11111 6,-2.5 0,-2.48148 -0.0667,-2.5 -9,-2.5 l -9,0 0,12 0,12 9.5,0 c 9.46667,0 9.5,-0.009 9.5,-2.5 z m 7,-1 c 0,-4.78703 3.14387,-4.79326 6.24081,-0.0124 1.81218,2.79755 2.90224,3.49007 5.50919,3.5 3.75637,0.0143 3.93489,-0.55519 1.25,-3.98762 -2.46893,-3.15634 -2.46126,-3.4571 0.17927,-7.0286 1.8484,-2.5001 2.03818,-3.51878 1.25,-6.70951 -1.12769,-4.56512 -4.67977,-6.11966 -14.17927,-6.20545 L 698,614 l 0,12 0,12 3,0 c 2.7619,0 3,-0.27778 3,-3.5 z m 0,-12 c 0,-3.1693 0.2654,-3.5 2.80887,-3.5 4.04485,0 6.59759,2.144 5.74629,4.8262 C 712.00092,625.57247 711.09178,626 707.93261,626 704.10486,626 704,625.90667 704,622.5 z m 31.03517,13.98181 c 3.3866,-1.75128 4.70454,-5.56292 3.12337,-9.03319 -0.76691,-1.68318 -2.45901,-2.74729 -5.64391,-3.54925 -4.99571,-1.25794 -6.33588,-2.47812 -4.61353,-4.20047 0.83578,-0.83578 1.96268,-0.81054 4.36287,0.0977 2.79323,1.057 3.40707,0.99171 4.48603,-0.47716 1.90918,-2.59911 1.56892,-3.1565 -2.61459,-4.283 -7.80391,-2.10137 -13.53765,1.04847 -12.95574,7.11727 0.28979,3.02231 0.84226,3.54829 5.79483,5.51705 3.01098,1.19693 5.6359,2.66042 5.83316,3.2522 0.60973,1.82918 -2.88794,2.44977 -6.48208,1.15011 -2.67191,-0.96618 -3.74079,-0.97339 -4.87402,-0.0329 -2.20586,1.8307 -1.79235,2.60454 2.29844,4.30132 4.80766,1.99412 7.63236,2.02923 11.28517,0.14029 z m 23.63859,-0.13129 c 4.47315,-2.12264 6.59897,-5.43662 6.59897,-10.28723 0,-5.22815 -3.3099,-9.69454 -8.29004,-11.18662 -5.23087,-1.56721 -12.33008,0.96065 -14.50399,5.16451 -3.14965,6.09075 -1.01406,13.4604 4.71939,16.28601 4.21719,2.07835 7.13256,2.08427 11.47567,0.0233 z m -10.01877,-6.17926 C 745.06724,626.20685 747.82475,620 753.17375,620 c 4.97417,0 7.78762,6.89578 4.25482,10.42857 -2.12179,2.12179 -6.74318,1.98626 -8.77358,-0.25731 z m 24.54932,1.16114 0.29569,-6.66759 5,6.64269 c 4.01777,5.33776 5.54023,6.64758 7.75,6.66759 L 789,638 l 0,-12 0,-12 -2.95228,0 c -2.92305,0 -2.95523,0.0619 -3.25,6.25 l -0.29772,6.25 -4.91046,-6.25 c -3.96484,-5.04641 -5.45729,-6.25 -7.75,-6.25 L 767,614 l 0,12 0,12 2.95431,0 c 2.94746,0 2.955,-0.0155 3.25,-6.6676 z m 24,0 0.29569,-6.66759 5,6.64269 c 4.01777,5.33776 5.54023,6.64758 7.75,6.66759 L 813,638 l 0,-12 0,-12 -2.95228,0 c -2.92305,0 -2.95523,0.0619 -3.25,6.25 l -0.29772,6.25 -4.91046,-6.25 c -3.96484,-5.04641 -5.45729,-6.25 -7.75,-6.25 L 791,614 l 0,12 0,12 2.95431,0 c 2.94746,0 2.955,-0.0155 3.25,-6.6676 z M 834.75,635.5 c 0,-2.40523 -0.24167,-2.5 -6.375,-2.5 -5.70833,0 -6.375,-0.20915 -6.375,-2 0,-1.75758 0.66667,-2 5.5,-2 5.2,0 5.5,-0.13636 5.5,-2.5 0,-2.36364 -0.3,-2.5 -5.5,-2.5 -5.2,0 -5.5,-0.13636 -5.5,-2.5 0,-2.38889 0.26667,-2.5 6,-2.5 5.73333,0 6,-0.11111 6,-2.5 0,-2.48148 -0.0667,-2.5 -9,-2.5 l -9,0 0,12 0,12 9.375,0 c 9.33333,0 9.375,-0.0111 9.375,-2.5 z M 853,634.96651 c 0,-2.79106 -0.25973,-3.01972 -3.25,-2.86126 C 841.61364,632.53641 842,632.99034 842,623 l 0,-9 -3,0 -3,0 0,12 0,12 8.5,0 8.5,0 0,-3.03349 z m 31.28212,1.67151 c 6.72551,-2.84661 9.3322,-9.43383 6.27914,-15.86767 -2.07884,-4.38084 -5.25709,-5.88338 -13.81126,-6.52935 l -6.75,-0.50973 0,12.13436 0,12.13437 5.53212,0 c 3.04266,0 6.98016,-0.61289 8.75,-1.36198 z M 876,626 l 0,-6.12073 3.71858,0.31036 c 2.84528,0.23748 4.07824,0.95621 5.25,3.06037 1.37523,2.46952 1.37523,3.03048 0,5.5 -1.17176,2.10416 -2.40472,2.82289 -5.25,3.06037 L 876,632.12073 876,626 z m 37,9.5 c 0,-2.41026 -0.23333,-2.5 -6.5,-2.5 -5.83333,0 -6.5,-0.20513 -6.5,-2 0,-1.75758 0.66667,-2 5.5,-2 5.2,0 5.5,-0.13636 5.5,-2.5 0,-2.36364 -0.3,-2.5 -5.5,-2.5 -5.2,0 -5.5,-0.13636 -5.5,-2.5 0,-2.38889 0.26667,-2.5 6,-2.5 5.73333,0 6,-0.11111 6,-2.5 0,-2.48148 -0.0667,-2.5 -9,-2.5 l -9,0 0,12 0,12 9.5,0 c 9.46667,0 9.5,-0.009 9.5,-2.5 z m 23,-0.87756 c 0,-1.85765 0.62505,-3.89629 1.38899,-4.53031 1.11552,-0.9258 1.9523,-0.26116 4.25,3.37576 2.57113,4.06971 3.24473,4.52871 6.64827,4.53032 l 3.78726,0.002 -3.86311,-5.75 c -2.12472,-3.1625 -4.17211,-6.27863 -4.54977,-6.92474 -0.38721,-0.66245 1.13889,-3.27896 3.49954,-6 l 4.18618,-4.82526 -3.30519,-0.32317 c -2.86555,-0.28018 -3.88031,0.31839 -7.62887,4.5 l -4.32368,4.82317 -0.0448,-4.75 C 936.0014,614.14885 935.90599,614 933,614 l -3,0 0,12 0,12 3,0 c 2.74119,0 3,-0.29138 3,-3.37756 z M 971.77069,635.5 c 0.2012,-2.43107 0.028,-2.5 -6.28189,-2.5 -5.82213,0 -6.4888,-0.20548 -6.4888,-2 0,-1.75758 0.66667,-2 5.5,-2 5.2,0 5.5,-0.13636 5.5,-2.5 0,-2.36364 -0.3,-2.5 -5.5,-2.5 -5.2,0 -5.5,-0.13636 -5.5,-2.5 0,-2.38889 0.26667,-2.5 6,-2.5 5.73333,0 6,-0.11111 6,-2.5 0,-2.48148 -0.0667,-2.5 -9,-2.5 l -9,0 0,12 0,12 9.28189,0 c 9.17885,0 9.28419,-0.0278 9.4888,-2.5 z m 18.90307,0.85052 c 4.47315,-2.12264 6.59897,-5.43662 6.59897,-10.28723 0,-5.22815 -3.3099,-9.69454 -8.29004,-11.18662 -5.23087,-1.56721 -12.33008,0.96065 -14.50399,5.16451 -3.14965,6.09075 -1.01406,13.4604 4.71939,16.28601 4.21719,2.07835 7.13256,2.08427 11.47567,0.0233 z m -10.01877,-6.17926 C 977.06724,626.20685 979.82475,620 985.17375,620 c 4.97417,0 7.78762,6.89578 4.25482,10.42857 -2.12179,2.12179 -6.74318,1.98626 -8.77358,-0.25731 z M 1016,635 c 0,-2.9697 -0.056,-3 -5.5,-3 l -5.5,0 0,-9 0,-9 -3,0 -3,0 0,12 0,12 8.5,0 8.5,0 0,-3 z m 8,-9 0,-12 -3,0 -3,0 0,12 0,12 3,0 3,0 0,-12 z m 19.2398,8.95221 c 3.7084,-4.57972 1.5967,-9.46098 -4.7886,-11.0688 -4.9356,-1.24282 -6.2672,-2.4674 -4.5501,-4.18451 0.8358,-0.83578 1.9627,-0.81054 4.3629,0.0977 2.798,1.05882 3.4065,0.99243 4.4958,-0.49054 1.9779,-2.69274 -0.7504,-4.6444 -6.6152,-4.73223 -6.1259,-0.0917 -9.1446,2.22636 -9.1446,7.02212 0,3.68916 0.6028,4.25292 6.9173,6.46981 2.4529,0.86117 4.6374,2.09844 4.8545,2.74947 0.6414,1.92445 -2.7647,2.58909 -6.4462,1.25784 -2.6719,-0.96618 -3.7408,-0.97339 -4.874,-0.0329 -2.2022,1.82759 -1.795,2.59872 2.2984,4.35307 4.9116,2.10503 11.1587,1.43768 13.4898,-1.44106 z m 35.2074,2.06787 c 1.4176,-0.53896 3.0988,-2.12433 3.7361,-3.52305 0.9747,-2.13921 0.8363,-2.97928 -0.8715,-5.28923 -1.832,-2.47787 -1.8866,-2.96254 -0.5589,-4.96212 1.9984,-3.00981 0.8493,-7.06623 -2.3459,-8.28105 C 1077.0115,614.43408 1072.7491,614 1068.9349,614 l -6.9349,0 0,12 0,12 6.9349,0 c 3.8142,0 8.0947,-0.44096 9.5123,-0.97992 z M 1068,630.5 c 0,-2.15699 0.4459,-2.4979 3.25,-2.48469 4.116,0.0194 6.2158,1.32857 5.4271,3.38377 -0.4227,1.10156 -1.8718,1.60092 -4.6457,1.60092 -3.6335,0 -4.0314,-0.24676 -4.0314,-2.5 z m 0,-9 c 0,-2.41691 0.2916,-2.59659 3.75,-2.31037 2.9799,0.24663 3.75,0.7211 3.75,2.31037 0,1.58927 -0.7701,2.06374 -3.75,2.31037 -3.4584,0.28622 -3.75,0.10654 -3.75,-2.31037 z m 23,13 c 0,-4.71552 2.9122,-4.71877 6.1211,-0.007 1.9107,2.80564 3.0312,3.49451 5.6929,3.5 l 3.314,0.007 -2.1816,-3.88151 -2.1815,-3.8815 2.2968,-3.10661 c 1.9684,-2.66239 2.164,-3.64452 1.3676,-6.86849 -1.1277,-4.56512 -4.6798,-6.11966 -14.1793,-6.20545 L 1085,614 l 0,12 0,12 3,0 c 2.7619,0 3,-0.27778 3,-3.5 z m 0,-12 c 0,-3.1693 0.2654,-3.5 2.8089,-3.5 4.0448,0 6.5976,2.144 5.7463,4.8262 -0.5543,1.74627 -1.4634,2.1738 -4.6226,2.1738 -3.8277,0 -3.9326,-0.0933 -3.9326,-3.5 z m 35,13.91667 c 0,-0.87646 0.5581,-1.35192 1.25,-1.06498 8.5522,3.54648 14.1202,3.02454 16.6963,-1.56512 2.4822,-4.42225 0.5409,-7.96142 -5.402,-9.84866 -2.7055,-0.85915 -5.0971,-2.09641 -5.3148,-2.74947 -0.6174,-1.85202 2.6177,-2.5791 5.5436,-1.24595 2.2537,1.02685 2.8368,0.94395 3.9362,-0.55967 1.9675,-2.69071 1.6307,-3.21419 -2.8436,-4.41898 -7.3427,-1.9772 -12.8657,0.86982 -12.8657,6.63213 0,3.68916 0.6028,4.25292 6.9173,6.46981 2.4529,0.86117 4.6374,2.09844 4.8545,2.74947 0.6455,1.93654 -2.7738,2.58579 -6.5076,1.23564 -2.862,-1.03491 -3.7249,-1.01801 -4.8343,0.0947 -0.939,0.94189 -3.3424,1.25231 -7.8901,1.01912 -5.6592,-0.29017 -6.5398,-0.59313 -6.5398,-2.25 0,-1.65415 0.7484,-1.91467 5.5,-1.91467 5.2,0 5.5,-0.13636 5.5,-2.5 0,-2.36364 -0.3,-2.5 -5.5,-2.5 -5.2,0 -5.5,-0.13636 -5.5,-2.5 0,-2.38889 0.2667,-2.5 6,-2.5 5.7333,0 6,-0.11111 6,-2.5 0,-2.48148 -0.067,-2.5 -9,-2.5 l -9,0 0,12 0,12 9.5,0 c 8,0 9.5,-0.25 9.5,-1.58333 z M 1159,629 l 0,-9 3.5,0 c 3.2222,0 3.5,-0.2381 3.5,-3 l 0,-3 -10,0 -10,0 0,3.07157 c 0,2.57266 0.3655,3.04196 2.25,2.8893 4.737,-0.3837 4.75,-0.35888 4.75,9.03913 l 0,9 3,0 3,0 0,-9 z M 804.78941,582.94224 c 41.22636,-4.49074 75.78207,-20.12612 103.51369,-46.83672 6.05601,-5.83304 13.39974,-13.48676 16.31942,-17.00828 l 5.3085,-6.40276 -36.71551,-29.22856 -36.71551,-29.22856 -6.71531,6.33091 c -13.23553,12.4779 -27.79703,21.20229 -41.78469,25.0349 -8.92317,2.44494 -28.06469,2.44687 -37,0.004 -16.37697,-4.47788 -30.08945,-15.4641 -37.7686,-30.2596 C 730.90413,450.86332 729,446.70082 729,446.0973 729,445.30895 754.58664,445 819.87721,445 l 90.87722,0 2.18341,8.70553 c 11.72531,46.75029 43.60633,86.52181 87.25246,108.84737 27.2175,13.92207 51.8796,20.14425 83.8848,21.16392 35.672,1.13649 64.6871,-4.7628 94.4249,-19.19832 15.4031,-7.47708 24.7661,-13.46513 37.0554,-23.69862 17.9973,-14.98661 32.462,-33.28685 42.935,-54.31988 7.2671,-14.59468 11.3182,-26.05791 14.666,-41.5 1.99,-9.17888 2.2765,-13.33096 2.2765,-33 0,-19.66904 -0.2865,-23.82112 -2.2765,-33 -11.2682,-51.9748 -43.0956,-93.01049 -90.8924,-117.18952 -62.2232,-31.47687 -141.7684,-27.04633 -198.33943,11.0472 -23.09336,15.55049 -40.60455,34.30063 -54.70068,58.57084 -2.61772,4.50712 -4.7945,7.31207 -5.0443,6.5 -1.29618,-4.21372 -11.62683,-23.67659 -15.95313,-30.05558 -18.5773,-27.39163 -43.66644,-46.40339 -75.10519,-56.91236 -20.55227,-6.86996 -39.94173,-9.89013 -63.62127,-9.90987 -29.80803,-0.0248 -57.76226,6.51552 -81.25,19.00982 l -7.25,3.85664 0,-7.95859 0,-7.95858 -111,0 -111,0 0,31.36563 0,31.36564 6.89258,0.49316 c 12.20763,0.87345 20.0946,6.58465 20.10368,14.55769 0.005,4.16015 -2.02947,9.03783 -6.21069,14.89213 C 475.08326,347.25815 418.97762,401 416.80644,401 415.07412,401 415,395.85091 415,275.5 l 0,-125.5 -91.5,0 -91.5,0 0,32.35247 0,32.35248 8.47241,0.65124 c 15.78829,1.21358 25.07736,7.12204 29.00531,18.44928 3.21769,9.27901 3.64029,27.35964 3.25882,139.42744 -0.41149,120.88784 -0.14988,115.72704 -6.43323,126.91255 C 260.83486,509.88029 251.18973,515 238.3185,515 l -6.3185,0 0,31.5 0,31.5 112,0 112,0 0,-31.35904 0,-31.35905 -8.51567,-0.53127 c -19.60678,-1.22322 -28.80852,-11.2311 -31.65993,-34.43357 l -1.18326,-9.62836 9.92943,-9.30428 c 5.46119,-5.11735 10.37943,-9.3189 10.92943,-9.33678 0.55,-0.0179 23.45616,28.31408 50.90258,62.95992 L 536.30517,578 l 79.84741,0 79.84742,0 0.22452,-30.75 0.22452,-30.75 0.52548,26 0.52548,26 8.5,3.19433 c 13.71289,5.15334 32.00732,9.21272 52.5,11.64931 7.02372,0.83512 37.35214,0.57212 46.28941,-0.4014 z M 679.75,516.33772 c 0.6875,-0.27741 1.8125,-0.27741 2.5,0 0.6875,0.27741 0.125,0.50439 -1.25,0.50439 -1.375,0 -1.9375,-0.22698 -1.25,-0.50439 z m -4.9375,-1.02083 c 0.72187,-0.28887 1.58438,-0.25335 1.91667,0.0789 0.33229,0.33229 -0.25834,0.56864 -1.3125,0.52522 -1.16495,-0.048 -1.4019,-0.28494 -0.60417,-0.60416 z M 643.87244,499.25 c -1.24387,-1.58606 -1.2085,-1.62143 0.37756,-0.37756 1.66575,1.30637 2.19548,2.12756 1.37244,2.12756 -0.20765,0 -0.99515,-0.7875 -1.75,-1.75 z m -9.40374,-8.5 -5.9687,-6.25 6.25,5.9687 c 5.80572,5.54441 6.7076,6.5313 5.9687,6.5313 -0.15472,0 -2.96722,-2.8125 -6.25,-6.25 z m -9.59626,-10.5 c -1.24387,-1.58606 -1.2085,-1.62143 0.37756,-0.37756 0.9625,0.75485 1.75,1.54235 1.75,1.75 0,0.82304 -0.82119,0.29331 -2.12756,-1.37244 z m -7,-9 c -1.24387,-1.58606 -1.2085,-1.62143 0.37756,-0.37756 0.9625,0.75485 1.75,1.54235 1.75,1.75 0,0.82304 -0.82119,0.29331 -2.12756,-1.37244 z M 1079,468.56703 c -16.8894,-4.70703 -31.2604,-18.90624 -37.0604,-36.6173 -2.0587,-6.28662 -2.4396,-9.40132 -2.4396,-19.94973 0,-10.49313 0.3854,-13.67644 2.4003,-19.82758 4.4512,-13.58823 13.7297,-25.03161 25.2936,-31.19507 8.1379,-4.33745 14.732,-5.9513 24.3746,-5.96548 23.8255,-0.0351 43.2863,15.29339 51.238,40.35789 1.1326,3.57011 1.6376,8.93154 1.6605,17.63024 0.028,10.62125 -0.3356,13.62725 -2.4196,20 -5.3239,16.28078 -18.366,29.86872 -33.4086,34.80684 -7.6776,2.5204 -22.0045,2.88786 -29.6388,0.76019 z M 613.87244,466.25 c -1.24387,-1.58606 -1.2085,-1.62143 0.37756,-0.37756 1.66575,1.30637 2.19548,2.12756 1.37244,2.12756 -0.20765,0 -0.99515,-0.7875 -1.75,-1.75 z m -4,-5 c -1.24387,-1.58606 -1.2085,-1.62143 0.37756,-0.37756 0.9625,0.75485 1.75,1.54235 1.75,1.75 0,0.82304 -0.82119,0.29331 -2.12756,-1.37244 z m -4,-5 c -1.24387,-1.58606 -1.2085,-1.62143 0.37756,-0.37756 1.66575,1.30637 2.19548,2.12756 1.37244,2.12756 -0.20765,0 -0.99515,-0.7875 -1.75,-1.75 z M 571.5,412.34451 c -17.6,-22.2467 -32.09413,-40.76263 -32.20918,-41.14653 -0.22705,-0.7576 43.9881,-36.70602 50.95084,-41.42476 7.56121,-5.12433 19.47803,-10.70075 28.38085,-13.28068 4.77741,-1.38444 8.87422,-2.32914 9.10403,-2.09933 0.22981,0.22981 -0.69559,2.1816 -2.05644,4.33733 C 609.96505,343.60896 600,380.37185 600,413.43228 c 0,9.91936 1.60809,28.58069 3.01952,35.04061 0.47742,2.18508 0.78084,4.05102 0.67426,4.14652 C 603.5872,452.71492 589.1,434.59121 571.5,412.34451 z M 727.47393,379.3253 c 1.80884,-12.06222 9.61503,-27.68418 17.13124,-34.2835 8.32655,-7.31081 19.73409,-10.54911 31.3638,-8.90336 9.17083,1.29779 16.17735,4.84788 22.96592,11.63645 8.2325,8.2325 12.71809,17.81667 15.43302,32.97511 l 0.58209,3.25 -44.08854,0 -44.08855,0 0.70102,-4.6747 z M 635.75,312.33772 c 0.6875,-0.27741 1.8125,-0.27741 2.5,0 0.6875,0.27741 0.125,0.50439 -1.25,0.50439 -1.375,0 -1.9375,-0.22698 -1.25,-0.50439 z m 9.5,-1.02705 c 0.9625,-0.25152 2.5375,-0.25152 3.5,0 0.9625,0.25153 0.175,0.45733 -1.75,0.45733 -1.925,0 -2.7125,-0.2058 -1.75,-0.45733 z M 1720.2331,568.1319 c 14.0422,-4.92938 22.7815,-16.07963 22.7613,-29.04083 -0.019,-11.95481 -6.7407,-19.31132 -24.336,-26.63245 C 1706.2484,507.29501 1703,505.12533 1703,502 c 0,-2.63825 3.5153,-5.68649 7.3978,-6.41485 6.4637,-1.2126 17.2979,2.17264 24.8699,7.7709 l 2.8291,2.09162 6.4041,-6.97384 c 6.1144,-6.65836 6.3611,-6.8158 5.4516,-3.48043 -0.5239,1.92137 -0.9525,3.59651 -0.9525,3.72254 0,0.12603 6.2186,0.354 13.8191,0.5066 l 13.8191,0.27746 -9.2938,34.5 c -5.1116,18.975 -9.3052,34.6125 -9.3191,34.75 -0.014,0.1375 5.75,0.25 12.8087,0.25 l 12.8341,0 9.3391,-34.9736 9.3391,-34.9736 14.0087,-0.2764 14.0088,-0.2764 2.2207,-8.16828 c 1.2214,-4.49255 2.5253,-9.55505 2.8976,-11.25 l 0.6768,-3.08172 -40.5324,0 -40.5325,0 -1.0414,3.75 c -0.5728,2.0625 -1.044,4.3125 -1.047,5 -0.01,1.73238 -0.1804,1.67007 -5.7407,-2.07173 -8.341,-5.6131 -17.9907,-8.17827 -30.7649,-8.17827 -15.2892,0 -22.5944,2.58123 -31.0787,10.98152 -5.3317,5.27889 -6.3039,6.85368 -7.911,12.81499 -1.5614,5.79153 -1.6576,7.55341 -0.6508,11.91516 2.4264,10.51181 6.1995,13.92056 24.0956,21.76862 6.2325,2.73322 12.1673,5.72553 13.1884,6.64959 2.3996,2.1716 2.3687,5.5966 -0.07,7.80395 -6.3655,5.76072 -23.3197,2.43463 -33.6001,-6.5917 l -3.6009,-3.16159 -7.0068,6.90973 c -9.6066,9.47353 -9.7741,9.87691 -5.8029,13.97409 4.2499,4.38481 15.6551,9.91996 24.4376,11.86007 9.233,2.03963 23.9482,1.44026 31.7331,-1.29253 z m -255.4907,-0.71371 c 9.4491,-1.95177 14.499,-4.41192 20.0402,-9.76296 6.5958,-6.36945 8.9593,-16.55063 5.6697,-24.4237 -1.9273,-4.61252 -4.7867,-7.71319 -8.5511,-9.27244 -3.675,-1.52226 -3.6841,-2.62823 -0.028,-3.43123 4.8476,-1.06473 10.7973,-6.22567 13.5537,-11.75693 4.8497,-9.73207 2.5938,-20.84579 -5.4078,-26.64214 C 1483.1771,477.17245 1475.3715,476 1449.2168,476 l -22.8883,0 -12.18,45.75 c -6.699,25.1625 -12.1729,46.0875 -12.1643,46.5 0.01,0.4125 12.4098,0.75 27.558,0.75 21.2208,0 29.2998,-0.36305 35.2002,-1.58181 z m -32.3778,-21.091 c 0.3016,-1.00496 1.3063,-4.89919 2.2327,-8.65386 l 1.6844,-6.82667 12.9498,0.32667 c 12.2081,0.30796 13.0591,0.46187 14.8591,2.68745 2.6917,3.32801 2.3758,6.58527 -1.0061,10.37344 l -2.9154,3.26578 -14.1765,0.32719 c -13.3437,0.30797 -14.1442,0.21986 -13.628,-1.5 z m 9.6582,-34.07719 c 0.013,-0.4125 0.828,-3.9 1.812,-7.75 l 1.7891,-7 11.0136,-0.28112 c 9.924,-0.25331 11.2783,-0.073 13.6881,1.82258 4.7032,3.69955 2.6182,10.5086 -3.9867,13.0198 -2.9217,1.11083 -24.3492,1.27715 -24.3161,0.18874 z m 74.4108,51.5 c 0.8192,-2.8875 2.5348,-9.075 3.8125,-13.75 l 2.3231,-8.5 5.9072,0 5.9071,0 6.2247,13.5 6.2246,13.5 14.0836,0.27746 c 7.746,0.1526 14.0836,0.0897 14.0836,-0.13986 0,-0.42184 -12.8519,-28.58026 -13.598,-29.79307 -0.2217,-0.3605 2.6346,-2.07174 6.3474,-3.80274 13.4201,-6.25677 20.2506,-16.27899 20.2506,-29.71328 0,-8.56476 -1.521,-13.40885 -5.768,-18.37058 -7.5417,-8.81082 -16.4496,-10.91653 -46.2821,-10.94057 L 1514.3997,476 l -12.5317,46.5 -12.5316,46.5 12.8038,0 12.8039,0 1.4895,-5.25 z M 1528,520.83783 c 0,-0.20792 0.8614,-3.51898 1.9141,-7.35793 1.0528,-3.83894 2.4202,-8.8924 3.0386,-11.2299 l 1.1244,-4.25 8.8963,0 c 9.5688,0 13.2401,0.92806 16.7766,4.24093 4.5603,4.27192 1.7317,12.83964 -5.3819,16.30157 -2.8743,1.39879 -6.7585,1.98404 -15.1181,2.2779 -6.1875,0.2175 -11.25,0.22534 -11.25,0.0174 z M 1656.3568,558.75 c 1.4622,-5.6375 2.6551,-10.5875 2.6509,-11 0,-0.4125 -11.0327,-0.75 -24.5077,-0.75 -13.475,0 -24.4842,-0.3375 -24.4649,-0.75 0.019,-0.4125 0.8524,-3.675 1.8511,-7.25 l 1.816,-6.5 22.2979,-0.5 22.2979,-0.5 2.3355,-8.5 c 1.2845,-4.675 2.3424,-9.0625 2.351,-9.75 0.012,-0.96247 -5.0288,-1.25 -21.9139,-1.25 l -21.9294,0 1.9294,-6.74682 c 1.0612,-3.71075 1.9294,-6.86075 1.9294,-7 0,-0.13925 11.0077,-0.25318 24.4615,-0.25318 l 24.4614,0 1.114,-4.25 c 1.5624,-5.96061 4.1438,-15.00948 4.7105,-16.51228 0.3791,-1.00523 -7.1256,-1.20887 -36.8514,-1 l -37.3274,0.26228 -11.744,43.42837 c -6.4592,23.88561 -12.0229,44.69811 -12.3638,46.25 l -0.6197,2.82163 37.4286,0 37.4286,0 2.6585,-10.25 z M 2896.0294,315.02683 c 2.4588,-1.23138 6.2162,-3.87867 8.3497,-5.88285 l 3.8792,-3.64398 -0.6292,2.75 c -0.346,1.5125 -0.9118,3.91046 -1.2573,5.32879 -0.5733,2.35369 -0.3843,2.55009 2.1661,2.25 3.0125,-0.35448 2.7822,0.39308 21.8984,-71.07879 l 3.4102,-12.75 -2.7917,0 c -2.7831,0 -2.8078,0.0604 -8.1225,19.88153 l -5.3309,19.88153 -2.6649,-4.20213 c -7.1147,-11.21874 -20.7022,-14.47734 -34.3374,-8.23491 -19.4493,8.90418 -27.1183,37.6239 -13.7304,51.4192 2.1389,2.20403 5.856,4.72994 8.2601,5.61315 5.8777,2.15925 15.1039,1.57147 20.9006,-1.33154 z m -18.5708,-3.8472 c -11.4988,-5.3919 -14.5302,-19.27033 -7.402,-33.88766 6.8303,-14.00629 21.3119,-19.73801 33.7852,-13.37189 7.0418,3.59404 10.1582,9.22981 10.1582,18.37054 0,18.84676 -21.5776,35.90564 -36.5414,28.88901 z m -187.3194,2.50523 c 5.0837,-2.43073 9.8608,-5.85098 9.8608,-7.05997 0,-0.30499 -0.8572,-1.01329 -1.9049,-1.574 -1.51,-0.8081 -3.0897,-0.30604 -7.6191,2.42139 -9.4013,5.6612 -18.6876,5.58859 -26.3448,-0.20599 -10.1552,-7.68488 -9.1741,-25.76787 2.024,-37.30677 10.6089,-10.93176 28.0171,-11.33324 35.7859,-0.8253 2.3383,3.16269 4.1977,3.60838 5.999,1.43792 0.9538,-1.1492 0.4543,-2.23671 -2.5593,-5.57242 -7.6255,-8.44049 -17.1977,-10.76883 -29.2378,-7.11177 -17.4259,5.29294 -28.7854,25.03091 -24.0793,41.83939 1.7846,6.37416 8.9306,13.57735 15.5764,15.70108 6.7781,2.16603 15.7817,1.4683 22.4991,-1.74356 z m 65.2273,0.005 c 24.0389,-11.00538 29.0824,-43.67411 8.3929,-54.36396 -4.3926,-2.26954 -6.5779,-2.72633 -13.2594,-2.77159 -6.6449,-0.045 -8.9613,0.39646 -13.6751,2.60622 -15.3259,7.18448 -24.385,23.9993 -20.8558,38.71075 3.871,16.13631 22.4283,23.58729 39.3974,15.81858 z m -20.6074,-3.05299 c -9.5647,-3.56628 -13.2359,-9.18096 -13.1664,-20.13675 0.052,-8.26711 2.9262,-14.80752 9.0709,-20.64398 6.1478,-5.83947 11.82,-8.27748 19.3364,-8.31123 8.5066,-0.0382 14.4025,3.06517 17.9874,9.46778 3.5575,6.35353 3.4636,16.39096 -0.2195,23.48743 -6.651,12.81465 -21.911,20.27468 -33.0088,16.13675 z m 232.7409,4.00466 c 2.75,-1.28649 6.5101,-3.75709 8.3558,-5.49024 1.8456,-1.73314 3.4924,-3.15117 3.6594,-3.15117 0.1671,0 -0.2898,2.25 -1.0152,5 l -1.319,5 2.8905,0 c 2.1839,0 3.0318,-0.56341 3.4689,-2.3049 0.3182,-1.26769 3.8488,-14.43019 7.8458,-29.25 l 7.2674,-26.9451 -2.4182,-0.32524 c -1.33,-0.17889 -2.5984,-0.14506 -2.8187,0.0752 -0.2202,0.22023 -2.6642,8.69159 -5.4311,18.82524 -5.5244,20.23306 -8.2305,25.59091 -15.6062,30.89823 -8.5777,6.17222 -17.7944,6.4225 -24.0888,0.65413 -5.5643,-5.09936 -5.5357,-9.41354 0.2031,-30.60439 2.5899,-9.56299 4.9364,-17.98033 5.2145,-18.70519 0.3478,-0.9064 -0.4117,-1.3181 -2.4314,-1.3181 l -2.9372,0 -4.6394,17.75 c -2.5516,9.7625 -4.9248,18.97955 -5.2738,20.48234 -0.9314,4.0116 1.3169,12.04078 4.3921,15.68512 5.1948,6.15623 15.998,7.78621 24.6815,3.72395 z m 79.6392,-0.95655 c 5.0837,-2.43073 9.8608,-5.85098 9.8608,-7.05997 0,-0.30499 -0.8572,-1.01329 -1.9049,-1.574 -1.51,-0.8081 -3.0897,-0.30604 -7.6191,2.42139 -9.4013,5.6612 -18.6876,5.58859 -26.3448,-0.20599 -10.1552,-7.68488 -9.1741,-25.76787 2.024,-37.30677 10.6089,-10.93176 28.0171,-11.33324 35.7859,-0.8253 2.3383,3.16269 4.1977,3.60838 5.999,1.43792 0.9538,-1.1492 0.4543,-2.23671 -2.5593,-5.57242 -7.6255,-8.44049 -17.1977,-10.76883 -29.2378,-7.11177 -17.4259,5.29294 -28.7854,25.03091 -24.0793,41.83939 1.7846,6.37416 8.9306,13.57735 15.5764,15.70108 6.7781,2.16603 15.7817,1.4683 22.4991,-1.74356 z m 51.7836,1.72995 c 0.4688,-0.50315 1.1486,-1.89673 1.5106,-3.09685 0.6294,-2.08642 0.4945,-2.13683 -3.0788,-1.1502 -4.5743,1.26303 -9.9659,0.49395 -12.4786,-1.78 -2.8816,-2.60783 -2.3615,-6.96392 3.352,-28.07272 L 3093.4559,262 l 10.1651,0 c 10.2419,0 11.379,-0.40788 11.379,-4.08179 0,-0.50501 -4.5,-0.91821 -10,-0.91821 -5.5,0 -10,-0.2307 -10,-0.51266 0,-0.53569 3.4783,-13.26826 4.529,-16.57869 0.5014,-1.57989 0.1042,-1.90865 -2.3059,-1.90865 -2.8291,0 -2.9812,0.26242 -5.3627,9.25 l -2.451,9.25 -4.5978,0.30042 c -3.9488,0.25803 -4.6625,0.63927 -5.0567,2.70126 -0.4193,2.19365 -0.095,2.42661 3.7556,2.69957 l 4.2145,0.29875 -5.3594,20 c -2.9477,11 -5.3608,21.25985 -5.3625,22.79966 -0.01,5.34313 2.8376,8.85199 8.9969,11.10207 2.2239,0.81241 11.9374,0.0706 12.9228,-0.98692 z m 59.3676,-1.8006 c 7.925,-3.79606 9.1181,-4.98723 7.5348,-7.52252 -1.4429,-2.31041 -2.3848,-2.61321 -3.337,-1.07267 -0.3463,0.56045 -2.9604,2.21711 -5.809,3.68146 -6.7839,3.48736 -17.3753,3.86249 -22.5732,0.79952 -6.0392,-3.55877 -9.2066,-8.51741 -9.8296,-15.38862 l -0.5542,-6.1115 24.6703,0 c 28.2743,0 26.1317,0.82333 26.0231,-10 -0.112,-11.15488 -5.6072,-18.51531 -15.7212,-21.05751 -21.4172,-5.38332 -43.779,17.00208 -40.2817,40.32412 2.4233,16.15936 22.8171,24.51966 39.8777,16.3476 z m -31.7826,-34.28711 c 3.9452,-9.4423 13.9976,-17.04484 23.7645,-17.97301 4.1772,-0.39697 6.1202,-0.0303 9.6692,1.82456 6.1977,3.23926 8.3409,6.57798 8.8639,13.80791 l 0.435,6.01344 -22.1336,0 -22.1336,0 1.5346,-3.6729 z m 89.9922,35.31431 c 2.75,-1.28649 6.5101,-3.75709 8.3558,-5.49024 1.8456,-1.73314 3.4924,-3.15117 3.6594,-3.15117 0.1671,0 -0.2898,2.25 -1.0152,5 l -1.319,5 2.8905,0 c 2.1839,0 3.0318,-0.56341 3.4689,-2.3049 0.3182,-1.26769 3.8488,-14.43019 7.8458,-29.25 l 7.2674,-26.9451 -2.4182,-0.32524 c -1.33,-0.17889 -2.5984,-0.14506 -2.8187,0.0752 -0.2202,0.22023 -2.6642,8.69159 -5.4311,18.82524 -5.5244,20.23306 -8.2305,25.59091 -15.6062,30.89823 -8.5777,6.17222 -17.7944,6.4225 -24.0888,0.65413 -5.5643,-5.09936 -5.5357,-9.41354 0.2031,-30.60439 2.5899,-9.56299 4.9364,-17.98033 5.2145,-18.70519 0.3478,-0.9064 -0.4117,-1.3181 -2.4314,-1.3181 l -2.9372,0 -4.6394,17.75 c -2.5516,9.7625 -4.9248,18.97955 -5.2738,20.48234 -0.9314,4.0116 1.3169,12.04078 4.3921,15.68512 5.1948,6.15623 15.998,7.78621 24.6815,3.72395 z m 118.1536,-0.4647 c 7.5992,-3.87683 11.2702,-10.43888 9.9065,-17.70826 -0.8547,-4.55591 -6.7381,-9.43765 -15.5324,-12.88797 -8.6351,-3.38787 -13.0277,-7.23331 -13.0277,-11.40496 0,-5.97651 7.0514,-11.15317 15.2151,-11.16994 3.6284,-0.007 11.6152,2.7562 15.0941,5.22296 2.7313,1.9367 2.8481,1.94035 4.2161,0.13168 2.083,-2.75398 1.4852,-3.56366 -5.0646,-6.86022 -12.0539,-6.06672 -27.9688,-3.16186 -33.1942,6.05874 -2.5925,4.57462 -2.8309,8.15475 -0.8574,12.87796 1.5676,3.75173 6.6611,7.15449 15.7928,10.55051 6.942,2.58166 11.7981,6.84874 11.7981,10.36695 0,12.44035 -17.6439,16.43691 -31.6474,7.16852 -5.0048,-3.31249 -5.1945,-3.35482 -6.848,-1.52779 -2.137,2.36137 -1.5328,3.31825 4.2264,6.69337 9.6241,5.64011 21.7656,6.64983 29.9226,2.48845 z M 1404.9251,312.25 c 0.5513,-2.0625 9.1186,-34.11358 19.0386,-71.22463 9.92,-37.11104 18.0363,-67.82354 18.0363,-68.25 0,-0.42645 -1.4625,-0.77134 -3.25,-0.76641 l -3.25,0.009 -18.8908,70.74104 c -10.39,38.90757 -19.09,71.30354 -19.3334,71.99104 -0.3002,0.84813 0.6972,1.25 3.1023,1.25 3.2514,0 3.6278,-0.31042 4.547,-3.75 z m 66.5125,-59.5 c 9.303,-34.7875 17.3331,-64.80918 17.8448,-66.71484 0.8546,-3.18301 1.0381,-3.31731 2.2564,-1.65115 0.7295,0.99752 16.5127,31.0192 35.074,66.71484 32.3472,62.2077 33.8631,64.90115 36.5274,64.90115 2.3499,0 2.9493,-0.57957 3.8781,-3.75 0.6042,-2.0625 9.3017,-34.35 19.3277,-71.75 l 18.2292,-68 -2.9328,-0.32418 c -1.613,-0.1783 -3.2049,0.12136 -3.5375,0.66591 -0.3327,0.54456 -8.4547,30.27794 -18.0488,66.07419 -9.5942,35.79624 -17.6942,65.07163 -18,65.05641 -0.3059,-0.0152 -15.92,-29.60271 -34.698,-65.75 L 1493.2162,172.5 l -3.3324,0 -3.3324,0 -19.2212,71.5 c -10.5717,39.325 -19.2458,71.6125 -19.2758,71.75 -0.03,0.1375 1.4133,0.25 3.2072,0.25 l 3.2615,0 16.9145,-63.25 z m 196.7293,0.25 c 9.185,-34.375 17.4549,-65.3125 18.3776,-68.75 l 1.6776,-6.25 25.8889,0 c 14.239,0 25.8951,-0.3375 25.9027,-0.75 0.01,-0.4125 0.286,-1.76637 0.6188,-3.0086 l 0.6053,-2.25859 -54.7971,0.25859 -54.797,0.2586 -0.7354,2.75 -0.7353,2.75 25.5219,0 25.5219,0 -0.6746,2.75 c -0.371,1.5125 -8.5198,32.11683 -18.1084,68.00962 -9.5886,35.89279 -17.4338,65.7338 -17.4338,66.31336 0,0.58567 1.4363,0.91454 3.2335,0.74038 L 1651.467,315.5 1668.1669,253 z m 77.8438,35.25 c 4.0301,-15.2625 7.7246,-29.22018 8.2101,-31.01706 l 0.8826,-3.26706 25.1634,0.26706 25.1633,0.26706 15.7267,30.5 15.7268,30.5 4.1667,0.3128 4.1667,0.3128 -10.2452,-19.8128 c -5.6349,-10.89704 -12.9078,-24.85038 -16.1622,-31.00742 l -5.9169,-11.19462 3.8036,-0.5639 c 9.5138,-1.41043 22.1949,-4.87004 27.9917,-7.63656 7.2975,-3.4828 16.0819,-11.57886 19.2045,-17.69963 10.4194,-20.42371 4.2059,-42.32467 -14.4282,-50.85565 C 1839.7442,172.90503 1831.3229,172 1799.6356,172 l -29.1885,0 -18.87,70.25 c -10.3785,38.6375 -19.0816,71.0375 -19.3402,72 -0.3815,1.41995 0.1821,1.75 2.9881,1.75 l 3.4583,0 7.3274,-27.75 z M 1757,247.58885 c 0,-1.12162 18.0408,-67.84581 18.5799,-68.71811 0.7458,-1.20681 48.3394,-1.05956 56.8891,0.17601 12.5516,1.81393 22.1373,7.68538 26.8615,16.45325 1.7498,3.24771 2.1565,5.6966 2.1623,13.02103 0.01,8.18797 -0.2968,9.63854 -3.2848,15.70802 -3.7244,7.5654 -8.7979,12.47089 -17.4477,16.87017 -10.9607,5.57454 -15.2575,6.13302 -51.0103,6.63012 -18.0125,0.25045 -32.75,0.18723 -32.75,-0.14049 z m 130.4551,47.21899 15.0449,-20.69216 44.5326,-0.0578 44.5325,-0.0578 3.8712,19.75 c 2.1291,10.8625 4.0751,20.3125 4.3244,21 0.2493,0.6875 1.9241,1.25 3.7218,1.25 l 3.2686,0 -14.6256,-72.49746 -14.6255,-72.49747 -3.1552,-0.003 c -3.0116,-0.002 -5.0799,2.60234 -45.4581,57.24746 -23.2666,31.4875 -47.4058,64.13942 -53.6426,72.55983 l -11.3397,15.30984 4.2529,-0.30984 4.2528,-0.30983 15.045,-20.69216 z m 20.7116,-27.62204 c 0.1833,-0.44781 14.7162,-20.29662 32.2953,-44.10846 25.2934,-34.26134 32.1152,-42.90652 32.6962,-41.43581 0.7724,1.95519 16.8418,83.27246 16.8418,85.22605 0,0.82485 -11.1584,1.13242 -41.0833,1.13242 -22.5959,0 -40.9334,-0.36639 -40.75,-0.8142 z M 2058.4376,252.75 c 9.303,-34.7875 17.3331,-64.80918 17.8448,-66.71484 0.8546,-3.18301 1.0381,-3.31731 2.2564,-1.65115 0.7295,0.99752 16.5127,31.0192 35.074,66.71484 32.3472,62.2077 33.8631,64.90115 36.5274,64.90115 2.3499,0 2.9493,-0.57957 3.8781,-3.75 0.6042,-2.0625 9.3017,-34.35 19.3277,-71.75 l 18.2292,-68 -2.9328,-0.32418 c -1.613,-0.1783 -3.2049,0.12136 -3.5375,0.66591 -0.3327,0.54456 -8.4547,30.27794 -18.0488,66.07419 -9.5942,35.79624 -17.6942,65.07163 -18,65.05641 -0.3059,-0.0152 -15.92,-29.60271 -34.698,-65.75 L 2080.2162,172.5 l -3.3324,0 -3.3324,0 -19.2212,71.5 c -10.5717,39.325 -19.2458,71.6125 -19.2758,71.75 -0.03,0.1375 1.4133,0.25 3.2072,0.25 l 3.2615,0 16.9145,-63.25 z m 239.5872,60.6849 c 0.5363,-1.4108 0.9752,-2.7608 0.9752,-3 0,-0.23919 -21.15,-0.4349 -47,-0.4349 -40.4084,0 -47,-0.20352 -47,-1.45118 0,-0.79815 3.1166,-13.06065 6.9257,-27.25 3.8092,-14.18935 7.4265,-27.71132 8.0386,-30.04882 l 1.1128,-4.25 42.3545,0 c 37.6992,0 42.4211,-0.17386 42.9614,-1.58179 C 2308.1451,240.85239 2309.528,241 2265,241 c -23.1,0 -42,-0.249 -42,-0.55334 0,-1.60272 16.2509,-61.06006 16.8602,-61.68653 0.3957,-0.40694 21.5943,-0.85694 47.1079,-1 l 46.3883,-0.26013 0.7353,-2.75 0.7353,-2.75 -50.1937,0 -50.1938,0 -18.8572,70.25 c -10.3714,38.6375 -19.0728,71.0375 -19.3364,72 -0.4518,1.64994 2.4164,1.75 50.1622,1.75 l 50.6414,0 0.9753,-2.5651 z M 2389.165,253 c 9.1794,-34.375 17.4474,-65.3125 18.3734,-68.75 l 1.6837,-6.25 25.8889,0 c 14.239,0 25.8951,-0.3375 25.9027,-0.75 0.01,-0.4125 0.286,-1.76637 0.6188,-3.0086 l 0.6053,-2.25859 -54.7971,0.25859 -54.797,0.2586 -0.7354,2.75 -0.7353,2.75 25.5219,0 25.5219,0 -0.6746,2.75 c -0.371,1.5125 -8.5198,32.11683 -18.1084,68.00962 -9.5886,35.89279 -17.4338,65.7338 -17.4338,66.31336 0,0.58586 1.4375,0.9146 3.2376,0.74038 L 2372.4751,315.5 2389.165,253 z m 403.8554,58.75 c 8.6748,-33.59232 11.3214,-39.76617 19.6002,-45.7234 8.5777,-6.17222 17.7944,-6.4225 24.0888,-0.65413 5.5643,5.09936 5.5357,9.41354 -0.2031,30.60439 -2.5899,9.56299 -4.9364,17.98033 -5.2145,18.70519 -0.3478,0.90625 0.4117,1.31795 2.4314,1.31795 l 2.9372,0 4.6394,-17.75 c 2.5516,-9.7625 4.9248,-18.97955 5.2738,-20.48234 1.0248,-4.41388 -1.4383,-12.4818 -4.9461,-16.2012 -7.5911,-8.04883 -21.0072,-7.2322 -32.2271,1.96164 l -4.2145,3.45348 1.3165,-4.99079 1.3166,-4.99079 -2.871,0 c -2.5334,0 -3.0039,0.49959 -4.0022,4.25 -6.251,23.48436 -14.0809,52.49876 -14.4377,53.5 -0.291,0.81692 0.5698,1.25 2.4847,1.25 2.6084,0 3.0506,-0.4667 4.0276,-4.25 z m 470.3289,-9.5 c 2.0371,-7.5625 4.903,-16.225 6.3688,-19.25 4.9859,-10.28935 15.7152,-18.74277 25.9605,-20.45381 3.4899,-0.58284 4.3546,-1.20273 5.2464,-3.76089 l 1.0678,-3.06303 -4.877,0.57761 c -6.9841,0.82717 -13.5763,4.2607 -19.7471,10.28534 -5.7923,5.65509 -6.126,5.48258 -3.8579,-1.99415 2.0154,-6.64364 1.899,-7.59107 -0.9332,-7.59107 -2.8869,0 -2.2297,-1.85766 -11.1197,31.42874 -3.6618,13.71081 -6.886,25.52331 -7.1649,26.25 -0.3491,0.90973 0.4056,1.32126 2.4228,1.32126 2.9181,0 2.9446,-0.0549 6.6335,-13.75 z M 1322.8349,289.79139 c 10.8172,-3.90838 17.6694,-8.34333 26.7162,-17.29139 6.4917,-6.42086 8.9959,-9.81359 12.6865,-17.18771 6.3012,-12.59034 8.1311,-21.38805 7.5193,-36.1509 -0.8211,-19.81333 -6.9103,-34.07002 -20.3132,-47.5595 -8.2935,-8.34701 -16.8752,-13.65014 -27.9437,-17.26785 -6.5427,-2.13846 -10.0038,-2.63066 -19,-2.7019 -20.07,-0.15894 -33.5949,5.42381 -48.0616,19.83871 -9.752,9.7171 -14.2392,16.97833 -18.557,30.02915 -2.2485,6.79629 -2.3258,8.23131 -2.6581,49.31068 l -0.3423,42.31068 41.3095,-0.33988 41.3095,-0.33988 7.3349,-2.65021 z M 2572.7854,254.75 l 0.8426,-3.25 -25.9638,-0.2669 c -14.28,-0.14679 -26.1167,-0.11398 -26.3036,0.0729 -0.1869,0.1869 -0.6257,1.7695 -0.9752,3.5169 L 2519.75,258 l 26.0964,0 26.0964,0 0.8426,-3.25 z"
       id="path3107"
       style="fill:#b0ba1d" />
    <path
       d="M 149.5,811.25037 C 132.13924,797.77649 101.09473,774.02888 44,730.54778 21.725,713.58401 2.8410714,699.09604 2.0357143,698.35228 0.80423979,697.215 13.722423,697 83.285714,697 L 166,697 l 0,63 c 0,34.65 -0.3375,62.97571 -0.75,62.94602 -0.4125,-0.0297 -7.5,-5.29274 -15.75,-11.69565 z m 609,-227.90673 c -20.49268,-2.43659 -38.78711,-6.49597 -52.5,-11.64931 l -8.5,-3.19433 -0.26659,-25.60407 -0.26658,-25.60406 -9.23342,-0.56633 c -17.8138,-1.0926 -33.8555,-8.56332 -49.26577,-22.94335 -4.29215,-4.0052 -13.81025,-14.83015 -21.15132,-24.05544 -14.80447,-18.6043 -14.45531,-17.82061 -16.29879,-36.5827 -3.58254,-36.46145 2.88566,-72.27636 18.61904,-103.09505 3.52355,-6.90195 6.99234,-13.31388 7.70843,-14.24874 1.94927,-2.54478 11.73905,-3.84566 33.88724,-4.50299 l 19.73224,-0.58563 0.26776,-23.50664 0.26776,-23.50664 5.93153,-3.28376 c 22.13338,-12.25331 52.37451,-19.38864 82.06847,-19.36389 61.40833,0.0512 108.98367,22.96744 138.72646,66.82223 4.3263,6.37899 14.65695,25.84186 15.95313,30.05558 0.2498,0.81207 2.42658,-1.99288 5.0443,-6.5 14.09613,-24.27021 31.60732,-43.02035 54.70068,-58.57084 56.57103,-38.09353 136.11623,-42.52407 198.33943,-11.0472 47.7968,24.17903 79.6242,65.21472 90.8924,117.18952 1.99,9.17888 2.2765,13.33096 2.2765,33 0,19.66904 -0.2865,23.82112 -2.2765,33 -3.3478,15.44209 -7.3989,26.90532 -14.666,41.5 -10.473,21.03303 -24.9377,39.33327 -42.935,54.31988 -12.2893,10.23349 -21.6523,16.22154 -37.0554,23.69862 -29.7378,14.43552 -58.7529,20.33481 -94.4249,19.19832 -32.0052,-1.01967 -56.6673,-7.24185 -83.8848,-21.16392 -43.64613,-22.32556 -75.52715,-62.09708 -87.25246,-108.84737 L 910.75443,445 819.87721,445 C 754.58664,445 729,445.30895 729,446.0973 c 0,0.60352 1.90413,4.76602 4.2314,9.25 7.67915,14.7955 21.39163,25.78172 37.7686,30.2596 8.93531,2.44314 28.07683,2.44121 37,-0.004 13.98766,-3.83261 28.54916,-12.557 41.78469,-25.0349 l 6.71531,-6.33091 36.71551,29.22856 36.71551,29.22856 -5.3085,6.40276 c -2.91968,3.52152 -10.26341,11.17524 -16.31942,17.00828 -27.73162,26.7106 -62.28733,42.34598 -103.51369,46.83672 -8.93727,0.97352 -39.26569,1.23652 -46.28941,0.4014 z m 350.1388,-115.5368 c 15.0426,-4.93812 28.0847,-18.52606 33.4086,-34.80684 2.084,-6.37275 2.4476,-9.37875 2.4196,-20 -0.023,-8.6987 -0.5279,-14.06013 -1.6605,-17.63024 -7.9517,-25.0645 -27.4125,-40.39294 -51.238,-40.35789 -18.2943,0.0269 -33.367,8.32576 -43.4469,23.92125 -6.3949,9.89424 -8.6216,18.43427 -8.6216,33.06688 0,10.54841 0.3809,13.66311 2.4396,19.94973 5.8,17.71106 20.171,31.91027 37.0604,36.6173 7.6343,2.12767 21.9612,1.76021 29.6388,-0.76019 z M 814.36791,380.75 c -2.71493,-15.15844 -7.20052,-24.74261 -15.43302,-32.97511 -6.78857,-6.78857 -13.79509,-10.33866 -22.96592,-11.63645 -11.62971,-1.64575 -23.03725,1.59255 -31.3638,8.90336 -7.51621,6.59932 -15.3224,22.22128 -17.13124,34.2835 l -0.70102,4.6747 44.08855,0 44.08854,0 -0.58209,-3.25 z M 1233.2233,250.81068 c 0.3323,-41.07937 0.4096,-42.51439 2.6581,-49.31068 4.3178,-13.05082 8.805,-20.31205 18.557,-30.02915 14.4667,-14.4149 27.9916,-19.99765 48.0616,-19.83871 8.9962,0.0712 12.4573,0.56344 19,2.7019 11.0685,3.61771 19.6502,8.92084 27.9437,17.26785 13.4029,13.48948 19.4921,27.74617 20.3132,47.5595 0.6118,14.76285 -1.2181,23.56056 -7.5193,36.1509 -3.6906,7.37412 -6.1948,10.76685 -12.6865,17.18771 -9.0468,8.94806 -15.899,13.38301 -26.7162,17.29139 l -7.3349,2.65021 -41.3095,0.33988 -41.3095,0.33988 0.3423,-42.31068 z"
       id="path3105"
       style="fill:#717b0b" />
  </g>
</svg>
