<?xml version="1.0" encoding="UTF-8" standalone="no"?>
<!-- Created with Inkscape (http://www.inkscape.org/) -->

<svg
   xmlns:dc="http://purl.org/dc/elements/1.1/"
   xmlns:cc="http://creativecommons.org/ns#"
   xmlns:rdf="http://www.w3.org/1999/02/22-rdf-syntax-ns#"
   xmlns:svg="http://www.w3.org/2000/svg"
   xmlns="http://www.w3.org/2000/svg"
   version="1.1"
   width="1101.3624"
   height="305.6554"
   id="svg2">
  <defs
     id="defs4" />
  <metadata
     id="metadata7">
    <rdf:RDF>
      <cc:Work
         rdf:about="">
        <dc:format>image/svg+xml</dc:format>
        <dc:type
           rdf:resource="http://purl.org/dc/dcmitype/StillImage" />
        <dc:title></dc:title>
      </cc:Work>
    </rdf:RDF>
  </metadata>
  <g
     transform="translate(110.7737,-371.74169)"
     id="layer1">
    <g
       transform="translate(-540.76847,285.29119)"
       id="g3102">
      <path
         d="m 559.85715,391.46666 c -20.96588,-1.3259 -48.32838,-6.06625 -64,-11.08752 -8.77196,-2.81058 -24.14107,-10.21629 -31.32173,-15.09258 -7.28514,-4.94724 -17.21809,-14.6774 -21.69187,-21.24899 -4.17452,-6.13201 -8.37746,-16.28911 -9.98118,-24.1212 -0.66574,-3.25123 -1.64256,-6.83462 -2.17071,-7.96309 -0.52816,-1.12848 -0.81949,-4.27848 -0.6474,-7 l 0.31289,-4.94824 490,0 c 465.27645,0 490.65515,0.0903 502.98315,1.78943 18.5481,2.55645 26.2357,4.29048 41.5169,9.36455 21.6824,7.19956 34.4484,14.72851 46.2561,27.28016 5.1247,5.44759 8.5065,10.20182 11.1613,15.69078 5.5934,11.56472 8.6381,22.04242 8.8769,30.54734 l 0.2057,7.32774 -480,0.0944 c -264.00005,0.0519 -485.17505,-0.23282 -491.50005,-0.63282 z M 1389.8572,373.1986 c 2.9539,-1.00733 3.5503,-1.72049 3.8228,-4.57072 0.1776,-1.85743 -0.093,-3.79321 -0.6017,-4.30173 -0.5661,-0.5661 -2.6928,-0.47934 -5.4851,0.22378 -3.6306,0.91418 -5.1367,0.8722 -7.3861,-0.20588 -1.554,-0.74483 -2.9765,-2.13831 -3.161,-3.09662 -0.2815,-1.46149 0.442,-1.74329 4.4877,-1.74797 7.0838,-0.008 11.8644,-1.66026 14.7591,-5.1004 1.8145,-2.15641 2.5643,-4.21383 2.5643,-7.03649 0,-2.19396 -0.4633,-4.85477 -1.0296,-5.91292 -1.6604,-3.10238 -6.4157,-4.94461 -12.7635,-4.94461 -12.4645,0 -19.38,7.41888 -20,21.45573 -0.254,5.75169 0.069,7.651 1.7607,10.35082 1.1394,1.81861 3.5254,3.9385 5.302,4.71086 3.9324,1.70952 12.9706,1.79931 17.7304,0.17615 z m -11.6219,-22.89068 c -1.0029,-1.62272 2.8222,-4.80288 5.7768,-4.80288 3.0004,0 3.8394,1.96898 1.5951,3.74336 -1.8216,1.44011 -6.703,2.1417 -7.3719,1.05952 z m 39.6962,23.19306 c 1.9658,-0.54609 4.5902,-2.07435 5.8319,-3.39613 2.6432,-2.81351 3.7058,-8.95352 2.2176,-12.81274 -0.5753,-1.49212 -2.8851,-3.87383 -5.1328,-5.29271 -4.0715,-2.5702 -5.8371,-4.98166 -4.5731,-6.24574 0.3659,-0.36581 2.7757,-0.6839 5.3553,-0.70687 4.1312,-0.0368 4.8507,-0.37566 6.0379,-2.8436 1.0972,-2.28127 1.1098,-3.08844 0.068,-4.34437 -1.0135,-1.22128 -3.0245,-1.4708 -9.6563,-1.19815 l -8.3761,0.34437 -3.4232,3.73531 c -2.731,2.98023 -3.423,4.56244 -3.423,7.82693 0,3.16592 0.6287,4.69636 2.7789,6.76468 1.5284,1.4702 4.0849,3.59853 5.6812,4.72965 2.1207,1.50273 2.714,2.54741 2.2029,3.87922 -0.5674,1.47865 -1.4039,1.70958 -4.4312,1.22353 -2.0525,-0.32952 -4.601,-0.72517 -5.6633,-0.87922 -2.6817,-0.38889 -5.496,4.52486 -3.9739,6.93853 0.602,0.95473 2.1771,2.03876 3.5,2.40895 3.6982,1.03481 11.012,0.97055 14.9797,-0.13164 z m 30.7973,-0.34125 c 0.6141,-0.73992 1.3985,-2.75539 1.7431,-4.47883 0.5462,-2.73031 0.2896,-3.26175 -1.9939,-4.12994 -2.1263,-0.80841 -2.6026,-1.61433 -2.5244,-4.27117 0.053,-1.80111 0.6156,-5.74975 1.25,-8.77475 1.094,-5.21589 1.3241,-5.51638 4.4539,-5.81711 2.484,-0.23869 3.5451,-0.96107 4.2902,-2.92122 1.4762,-3.88269 0.7267,-5.68687 -2.6027,-6.2655 -2.7309,-0.4746 -2.9879,-0.86223 -2.9879,-4.50771 l 0,-3.98846 -3.9085,0.23846 c -4.3522,0.26553 -7.3232,2.39289 -7.7856,5.57497 -0.185,1.27366 -1.271,2.33082 -2.7506,2.67761 -1.737,0.40714 -2.7002,1.55893 -3.3272,3.97848 -0.7502,2.89544 -0.5664,3.6438 1.2275,4.99696 l 2.1099,1.59151 -1.5328,7.28638 c -3.3426,15.89024 -1.5382,19.8733 9.0949,20.07668 2.3276,0.0445 4.6144,-0.50772 5.244,-1.26636 z m -123.0774,-1.97912 c 4.8406,-2.60479 7.1976,-7.11146 7.202,-13.77058 0,-4.32816 -0.4491,-6.00484 -1.9962,-7.40499 -1.1,-0.99549 -2,-2.19657 -2,-2.66908 0,-0.47251 1.3777,-2.09027 3.0617,-3.59502 3.8126,-3.40688 4.9303,-9.41679 2.5921,-13.93831 -2.4723,-4.78091 -6.9354,-6.29759 -18.5319,-6.29759 -9.3721,0 -10.1725,0.15714 -11.4604,2.25 -0.7614,1.2375 -2.3917,7.875 -3.6227,14.75 -1.231,6.875 -2.6088,13.625 -3.0617,15 -1.5707,4.76823 -3.1746,15.87147 -2.4598,17.02807 0.5064,0.81942 4.5939,1.05294 13.8506,0.79132 10.1384,-0.28655 13.883,-0.77527 16.4263,-2.14382 z m -16.4073,-12.31094 c 0.3643,-3.09945 0.9028,-6.02445 1.1967,-6.5 0.821,-1.32835 4.197,-1.02944 7.466,0.66105 2.2388,1.15771 2.9504,2.22553 2.9504,4.42742 0,3.78608 -4.0594,7.0469 -8.7726,7.0469 l -3.5028,0 0.6623,-5.63537 z m 3.9531,-17.92081 c -0.3284,-0.8559 -0.1875,-2.9934 0.3132,-4.75 0.7072,-2.48102 1.5368,-3.26634 3.717,-3.51878 2.925,-0.33865 6.6298,2.12423 6.6298,4.40737 0,1.92092 -4.9481,5.41759 -7.6663,5.41759 -1.3181,0 -2.6652,-0.70028 -2.9937,-1.55618 z m 34.3723,31.30618 c 0.5265,-0.6875 1.514,-3.95 2.1945,-7.25 1.4111,-6.84305 4.2101,-13.5222 6.4433,-15.37559 0.8371,-0.69475 2.7784,-1.5992 4.314,-2.00989 2.1614,-0.57804 2.9895,-1.58161 3.6662,-4.44295 0.4808,-2.03293 0.6173,-4.36569 0.3033,-5.1839 -0.7271,-1.8947 -5.644,-1.93311 -8.1925,-0.064 -1.6848,1.23568 -2.1587,1.22743 -3.5889,-0.0625 -1.0682,-0.9634 -3.1772,-1.37624 -5.9957,-1.17367 l -4.3478,0.31249 -0.7924,5.5 c -0.4358,3.025 -1.6967,10.79585 -2.8019,17.26856 -1.1053,6.47271 -1.7366,12.21021 -1.403,12.75 0.8789,1.42205 9.0714,1.20636 10.2009,-0.26856 z m 95.8234,-120.79273 c -6.5188,-1.02618 -14.342,-3.38076 -19.0357,-5.7293 -1.65,-0.82559 -5.8725,-3.77613 -9.3834,-6.55675 -4.9274,-3.90259 -7.037,-6.43734 -9.2492,-11.11345 -3.5672,-7.54024 -3.6873,-10.31388 -0.4816,-11.11846 1.9738,-0.4954 3.5729,0.58048 9.2611,6.23095 5.4867,5.45038 8.4736,7.50436 14.7892,10.17003 11.28,4.76103 20.239,6.44972 31.0639,5.85527 11.885,-0.65267 18.5647,-2.96495 24.0966,-8.34137 l 4.4034,-4.27958 0,-7.03731 0,-7.0373 -3.8045,-3.80452 c -2.1802,-2.18015 -6.343,-4.78351 -9.75,-6.09748 -3.27,-1.26114 -6.8455,-2.69551 -7.9455,-3.1875 -1.1,-0.49198 -8.75,-2.52545 -17,-4.51882 -8.25,-1.99337 -17.772,-4.8754 -21.1601,-6.4045 -11.9775,-5.40576 -20.3089,-16.09241 -20.3301,-26.07746 -0.013,-5.99048 4.7101,-15.52053 10.1088,-20.39788 6.1401,-5.54722 17.7827,-10.49615 28.8814,-12.27661 7.7775,-1.24768 11.4038,-1.32447 20,-0.42354 5.775,0.60526 12.7265,1.86787 15.4479,2.80581 8.1902,2.82287 17.838,8.82186 21.1959,13.17961 3.6996,4.80124 6.8468,12.48199 6.009,14.66518 -0.3245,0.84574 -1.71,1.53771 -3.0788,1.53771 -1.6548,0 -3.4245,-1.18352 -5.2814,-3.53199 -4.0145,-5.07741 -11.792,-10.02779 -19.2926,-12.27979 -19.4138,-5.82884 -39.5864,-2.40859 -47.3224,8.02349 -1.3254,1.78733 -2.0109,4.26913 -2.0109,7.28044 0,3.82628 0.5434,5.12937 3.3439,8.01875 3.9994,4.12641 14.3446,8.62745 26.6189,11.58155 16.6831,4.01516 26.6868,7.03416 31.6614,9.55496 6.2841,3.18438 14.2598,10.59729 17.0296,15.82797 1.6265,3.07149 2.11,5.68239 2.0418,11.02462 -0.075,5.91716 -0.584,7.88554 -3.2872,12.72458 -1.7588,3.14853 -4.9907,7.25928 -7.1821,9.13502 -5.6484,4.83484 -14.5171,9.33204 -21.9861,11.14893 -7.7818,1.89299 -30.1775,2.73857 -38.3712,1.44874 z m -738.0592,-0.87872 c -8.2357,-1.31961 -16.62982,-4.05776 -22.47655,-7.33182 -11.59067,-6.49055 -15.85097,-9.91412 -21.47594,-17.25801 -4.20394,-5.48862 -6.39413,-9.55967 -8.19652,-15.23544 -4.71827,-14.85792 -4.09153,-31.75297 1.69338,-45.64883 2.2099,-5.30837 4.86508,-9.17739 10.50264,-15.30405 6.84755,-7.44161 8.58181,-8.70438 18.76073,-13.6602 6.16864,-3.00333 13.69071,-5.97043 16.71571,-6.59354 10.30411,-2.12253 22.90841,-2.37809 33,-0.6691 7.18838,1.21734 11.72453,2.72046 18.64211,6.17735 5.02817,2.5127 10.95347,6.11899 13.16734,8.01398 5.86377,5.01917 12.735,15.15919 15.25949,22.51878 1.52572,4.44787 2.23503,9.01636 2.31532,14.91233 l 0.11574,8.5 -53.5,0.5 -53.5,0.5 0.0581,5.5 c 0.084,7.9599 2.75573,15.73507 7.65475,22.27703 7.61018,10.16233 17.42739,15.5187 33.65984,18.36514 7.38681,1.29532 9.39559,1.29248 17.06008,-0.0241 9.58367,-1.64625 20.4773,-5.40126 25.38661,-8.7507 1.74935,-1.19353 5.91246,-4.82148 9.25135,-8.06213 5.58475,-5.42042 6.28519,-5.81054 8.75,-4.87342 1.47361,0.56027 2.67929,1.64246 2.67929,2.40486 0,1.94002 -9.19976,15.61436 -12.64706,18.79833 -4.88577,4.51257 -18.55295,11.73048 -25.35294,13.38939 -7.43455,1.81372 -30.056,2.75065 -37.52345,1.55414 z m 53.85533,-78.40105 c -0.34958,-10.02787 -8.76461,-21.25076 -19.65673,-26.21563 -2.84633,-1.29743 -8.66265,-3.07532 -12.92515,-3.95087 -7.05665,-1.4495 -8.44335,-1.45175 -15.5,-0.0251 -8.73721,1.76637 -18.18494,6.07016 -22.95327,10.45607 -1.7618,1.6205 -4.58609,4.85528 -6.2762,7.18841 -3.29649,4.55068 -6.55121,14.04434 -5.63414,16.43419 0.47977,1.25024 6.43357,1.42053 41.83649,1.19658 l 41.27712,-0.26115 -0.16812,-4.8225 z m 176.66812,78.73715 c -10.29665,-1.83728 -17.66402,-4.2573 -25,-8.21195 -9.58376,-5.16636 -17.98249,-13.07988 -22.29902,-21.01078 -8.32618,-15.29791 -8.9599,-42.13538 -1.38203,-58.52671 1.31336,-2.84087 4.92336,-8.38781 8.02223,-12.32655 4.41801,-5.6154 7.39571,-8.20145 13.79377,-11.97952 4.48771,-2.65001 9.78073,-5.42682 11.76226,-6.17069 11.58728,-4.34988 28.59543,-6.12213 41.35563,-4.30925 10.11797,1.43748 17.75124,4.07135 26.62304,9.18633 9.52365,5.49079 19.66757,16.82727 23.40017,26.15129 4.7288,11.81223 5.8313,24.79545 3.2934,38.78318 -1.9963,11.00253 -5.0027,18.0225 -10.8731,25.38893 -5.65009,7.08988 -9.87652,10.51746 -19.19635,15.56799 -9.18074,4.97516 -18.97507,7.15146 -34,7.55482 -7.15,0.19195 -14.125,0.14826 -15.5,-0.0971 z m 26.43701,-12.59277 c 5.87363,-1.49143 13.9183,-7.06513 18.42346,-12.76458 2.19685,-2.77922 4.96769,-7.64157 6.15743,-10.80521 1.18974,-3.16365 2.65861,-9.9482 3.26415,-15.07678 1.34654,-11.40434 -0.0348,-25.90061 -3.28918,-34.51898 -2.67004,-7.07078 -8.9603,-15.07096 -15.10793,-19.21478 -2.49557,-1.68215 -7.12692,-3.87296 -10.29189,-4.86846 -4.32339,-1.35988 -7.91046,-1.70538 -14.42377,-1.38926 -7.47803,0.36293 -9.73564,0.9347 -16.42969,4.16104 -6.00838,2.89587 -8.67735,4.90032 -11.82188,8.87845 -5.48532,6.93946 -7.80169,11.73922 -9.47476,19.6327 -1.81401,8.55847 -1.80534,25.77008 0.0173,34.37067 1.96054,9.25127 4.44468,14.39618 9.82597,20.35062 8.32657,9.21343 20.69281,13.88314 33.71377,12.73094 3.025,-0.26768 7.27166,-0.93655 9.43701,-1.48637 z m -528.965,10.95906 c -0.26893,-0.70452 -0.37265,-36.15594 -0.23049,-78.78094 l 0.25848,-77.500001 12.5,0 12.5,0 0.26338,34.463381 c 0.14486,18.95486 0.6683,34.8683 1.16322,35.36322 0.8895,0.8895 7.96245,-4.35315 22.68009,-16.81106 15.36555,-13.00635 22.05765,-18.50752 25.89331,-21.2853 2.2,-1.59324 4.6671,-3.70646 5.48244,-4.69605 0.81534,-0.98959 4.64034,-4.13882 8.5,-6.99829 3.85966,-2.85947 7.64745,-5.96464 8.41732,-6.90038 0.76987,-0.93574 4.92026,-4.38654 9.22308,-7.668435 l 7.82333,-5.967086 10.9679,0 c 6.03234,0 11.22276,0.412379 11.53426,0.916399 0.65644,1.062134 0.49576,1.199635 -43.91942,37.583602 -27.78607,22.76176 -39.48413,32.74727 -39.50984,33.72575 -0.0248,0.94405 2.80222,3.45913 24.98093,22.22445 10.175,8.60904 21.875,18.51706 26,22.01783 4.125,3.50078 11.325,9.58588 16,13.52246 4.675,3.93657 11.875,10.018 16,13.51428 4.125,3.49628 9.18604,7.78334 11.24675,9.5268 2.06072,1.74345 3.49666,3.57458 3.19099,4.06917 -0.30568,0.49459 -7.26275,0.89926 -15.46017,0.89926 l -14.9044,0 -6.28658,-5.77693 c -5.75695,-5.29022 -14.22644,-12.41004 -25.08081,-21.084 -2.31318,-1.84852 -6.72771,-5.67352 -9.81007,-8.5 -3.08235,-2.82649 -10.26584,-8.96407 -15.96329,-13.63907 -5.69745,-4.675 -12.40052,-10.32211 -14.89571,-12.54913 -11.61367,-10.3655 -21.21699,-17.6706 -22.08663,-16.80095 -0.52642,0.52642 -1.03899,17.52068 -1.188,39.388 l -0.26208,38.46208 -12.26951,0.28094 c -9.26076,0.21204 -12.38942,-0.0332 -12.75848,-1 z m 689.00074,0.002 c -0.2693,-0.70562 -0.3734,-36.15794 -0.2312,-78.78294 l 0.2585,-77.500001 11.5,0 11.5,0 0,78.500001 0,78.5 -11.2688,0.28293 c -8.4581,0.21235 -11.3909,-0.0371 -11.7585,-1 z m 132.5273,-0.9496 c 0,-0.18333 1.3211,-4.38333 2.9358,-9.33333 3.2254,-9.88761 6.4559,-25.34434 8.0411,-38.47377 1.5147,-12.54586 1.2649,-40.99349 -0.4525,-51.52623 -2.0039,-12.28995 -3.8884,-18.2343 -9.6384,-30.40192 -2.7035,-5.72106 -4.7245,-10.59299 -4.4909,-10.82651 0.3732,-0.37325 3.1816,3.20898 11.2009,14.2874 3.1263,4.31889 15.2532,13.9269 19.3032,15.29379 1.8696,0.63097 5.515,1.14723 8.101,1.14723 6.1913,0 12.883,-3.56287 20.2236,-10.76769 3.1481,-3.08987 6.0292,-5.31264 6.4023,-4.93949 0.6145,0.61448 -2.1769,12.91336 -3.4338,15.12915 -0.2876,0.50709 -2.6948,7.41353 -5.3493,15.34766 -5.5215,16.50354 -17.0357,41.52672 -26.9484,58.56543 -6.0839,10.45755 -23.3628,35.98937 -24.6446,36.41579 -0.6875,0.2287 -1.25,0.26582 -1.25,0.0825 z m 25.9749,-128.8584 c -2.9594,-2.95935 -8.9749,-15.83245 -8.9749,-19.20597 0,-4.092295 1.3684,-6.195139 6.6618,-10.23694 5.8984,-4.503779 10.3305,-4.767517 13.1418,-0.782031 4.3863,6.218151 7.5279,13.826391 7.6114,18.432941 0.071,3.8988 -0.4174,5.21146 -2.915,7.83928 -5.7881,6.08969 -11.8458,7.632 -15.5251,3.95272 z"
         id="path3106"
         style="fill:#005194;fill-opacity:1" />
      <path
         d="m 559.85715,391.46691 c -20.96778,-1.32648 -48.32906,-6.06672 -64,-11.08777 -8.77196,-2.81058 -24.14107,-10.21629 -31.32173,-15.09258 -7.28514,-4.94724 -17.21809,-14.6774 -21.69187,-21.24899 -4.17452,-6.13201 -8.37746,-16.28911 -9.98118,-24.1212 -0.66574,-3.25123 -1.64256,-6.83462 -2.17071,-7.96309 -0.52816,-1.12848 -0.81949,-4.27848 -0.6474,-7 l 0.31289,-4.94824 413.75,-0.2512 c 355.84975,-0.21604 413.75005,-0.0535 413.75005,1.16139 0,1.2979 -5.4618,14.74759 -7.7928,19.18991 -1.9163,3.65189 -13.2072,28.23741 -13.2072,28.75808 0,0.28893 -2.5484,5.83904 -5.6632,12.33357 -3.1147,6.49454 -7.5128,16.08325 -9.7736,21.30825 l -4.1105,9.5 -322.97639,0.0947 c -177.637,0.0521 -328.15136,-0.2327 -334.47636,-0.63283 z M 1280.8321,119.47998 c -2.9594,-2.95935 -8.9749,-15.83245 -8.9749,-19.20597 0,-4.092295 1.3684,-6.195139 6.6618,-10.23694 5.8984,-4.503779 10.3305,-4.767517 13.1418,-0.782031 4.3863,6.218151 7.5279,13.826391 7.6114,18.432941 0.071,3.8988 -0.4174,5.21146 -2.915,7.83928 -5.7881,6.08969 -11.8458,7.632 -15.5251,3.95272 z"
         id="path3104"
         style="fill:#0aa79f;fill-opacity:1" />
    </g>
  </g>
</svg>
